<svg width="40" height="40" viewBox="0 0 40 40" fill="none" xmlns="http://www.w3.org/2000/svg">
<path d="M32.2024 9.27031C31.9493 9.13949 31.7029 8.99609 31.4641 8.84063C30.7698 8.38161 30.1332 7.84074 29.568 7.22969C28.1539 5.61172 27.6258 3.97031 27.4313 2.82109H27.4391C27.2766 1.86719 27.3438 1.25 27.3539 1.25H20.9133V26.1547C20.9133 26.4891 20.9133 26.8195 20.8993 27.1461C20.8993 27.1867 20.8954 27.2242 20.893 27.268C20.893 27.2859 20.893 27.3047 20.8891 27.3234V27.3375C20.8212 28.2311 20.5348 29.0943 20.055 29.8512C19.5752 30.6081 18.9167 31.2354 18.1375 31.6781C17.3255 32.1401 16.407 32.3825 15.4727 32.3813C12.4719 32.3813 10.0399 29.9344 10.0399 26.9125C10.0399 23.8906 12.4719 21.4438 15.4727 21.4438C16.0407 21.4432 16.6053 21.5326 17.1454 21.7086L17.1532 15.1508C15.5136 14.939 13.8479 15.0693 12.2613 15.5335C10.6746 15.9976 9.20132 16.7856 7.93441 17.8477C6.82431 18.8122 5.89104 19.963 5.1766 21.2484C4.90473 21.7172 3.87894 23.6008 3.75473 26.6578C3.6766 28.393 4.19769 30.1906 4.44613 30.9336V30.9492C4.60238 31.3867 5.20785 32.8797 6.19457 34.1383C6.99022 35.1479 7.93026 36.0347 8.98441 36.7703V36.7547L9.00004 36.7703C12.118 38.8891 15.575 38.75 15.575 38.75C16.1735 38.7258 18.1782 38.75 20.4547 37.6711C22.9797 36.475 24.4172 34.693 24.4172 34.693C25.3356 33.6282 26.0658 32.4147 26.5766 31.1047C27.1594 29.5727 27.3539 27.7352 27.3539 27.0008V13.7883C27.4321 13.8352 28.4727 14.5234 28.4727 14.5234C28.4727 14.5234 29.9719 15.4844 32.311 16.1102C33.9891 16.5555 36.25 16.6492 36.25 16.6492V10.2555C35.4578 10.3414 33.8493 10.0914 32.2024 9.27031Z" fill="white"/>
</svg>
