<svg width="165" height="96" viewBox="0 0 165 96" fill="none" xmlns="http://www.w3.org/2000/svg">
<g clip-path="url(#clip0_1_13)">
<path d="M26.565 50.8075C26.2763 52.3351 26.0288 53.8214 25.6988 55.2665C25.08 57.9914 23.8425 60.4273 21.78 62.3678C18.48 65.4643 13.7775 65.2166 10.89 61.7485C10.8075 61.666 10.8075 61.5008 10.7663 61.2118C11.1788 61.2118 11.5913 61.1292 11.9213 61.2118C12.5813 61.3769 13.2 61.666 13.86 61.8311C17.5312 62.7394 19.6763 61.8311 21.6975 58.6107C23.3888 55.9271 23.5538 52.9131 23.925 49.8579C24.2963 46.7614 24.7087 43.6649 25.4925 40.6509C26.3588 37.2654 28.1325 34.334 31.02 32.1871C35.31 29.0493 41.91 29.9164 45.2925 34.0038C47.355 36.5222 47.685 39.6188 45.9938 42.6327C43.4363 47.133 39.4763 49.6515 34.485 50.6836C31.8863 51.2617 29.2463 51.6745 26.565 50.8075ZM26.6063 49.1973C29.4113 48.7432 32.01 48.4542 34.5675 47.9174C38.28 47.133 41.25 45.1099 43.2713 41.8895C44.8388 39.4123 44.4675 37.059 42.2813 35.0772C39.765 32.7651 35.31 32.5174 32.67 34.6643C28.1325 38.3389 27.3488 43.6649 26.6063 49.1973Z" fill="url(#paint0_linear_1_13)"/>
<path d="M21.2025 44.5319C20.9137 47.422 20.6662 50.3121 20.2537 53.2021C19.965 55.3491 18.7275 57.0831 17.16 58.5282C16.8712 58.7759 16.2525 58.7346 15.7987 58.8172C15.7575 58.363 15.51 57.7437 15.7162 57.4547C18.6037 53.6563 18.3562 49.2386 18.4387 44.8622C18.5212 40.7748 18.3975 40.7748 15.5512 37.8434C14.2312 36.4397 12.87 35.0772 11.5912 33.6322C10.56 32.4349 9.9825 30.9898 9.9825 29.3796C9.9825 27.7694 10.6012 26.5308 12.045 25.829C13.5712 25.1271 15.1387 25.3748 16.17 26.5721C17.2425 27.852 18.1912 29.3383 18.8512 30.9072C20.6662 35.2424 21.0787 39.8665 21.2025 44.5319ZM16.9537 35.6139C17.1187 35.5314 17.325 35.4488 17.49 35.3662C16.7062 33.5909 16.0462 31.7743 15.0975 30.0815C14.7675 29.4622 13.4475 28.6365 13.2825 28.8016C12.375 29.4622 12.9112 30.4944 13.4062 31.155C14.4787 32.6826 15.7575 34.1276 16.9537 35.6139Z" fill="url(#paint1_linear_1_13)"/>
<path d="M23.8012 34.3753C23.1825 31.0724 23.9662 28.141 24.8325 25.2509C24.9562 24.8794 25.6162 24.6316 26.0287 24.3426C26.235 24.7968 26.73 25.3335 26.6475 25.7464C26.1525 28.6365 25.6575 31.6091 23.8012 34.3753Z" fill="#15B0A9"/>
<path d="M67.0127 42.7562C67.0398 42.8375 67.0398 42.9459 67.0398 43.0272C67.0398 43.0814 67.0398 43.1898 67.0127 43.2982C67.0127 43.3795 67.0127 43.4879 67.0127 43.5692C66.9856 43.7589 66.9585 43.9215 66.9314 44.1111C66.8772 44.4092 66.7688 44.7344 66.6604 45.0325C66.4707 45.5474 66.1726 46.0081 65.8474 46.4146C65.3325 47.0107 64.7364 47.4985 64.0318 47.8237C63.4627 48.0947 62.8395 48.3115 62.2162 48.447C61.4303 48.6367 60.6173 48.718 59.8044 48.718H55.4415V54.3274C55.4415 55.0591 55.7396 55.7636 56.2815 56.2514L56.3628 56.3327H52.569L52.6232 56.2514C53.1652 55.7636 53.4633 55.0591 53.4633 54.3274V39.3147C53.4633 38.583 53.1652 37.8784 52.6232 37.3906L52.569 37.3093H59.8044C60.6173 37.3093 61.4303 37.4177 62.2162 37.6074C62.8395 37.7429 63.4627 37.9326 64.0318 38.2036C64.7364 38.5559 65.3325 39.0437 65.8474 39.6127C66.1726 40.0463 66.4707 40.507 66.6604 40.9948C66.7688 41.2929 66.8772 41.6181 66.9314 41.9432C66.9585 42.1058 66.9856 42.2955 67.0127 42.4581C67.0127 42.5665 67.0127 42.6478 67.0127 42.7562ZM65.0616 43.2169C65.0616 43.1627 65.0616 43.1085 65.0616 43.0272C65.0616 42.9188 65.0616 42.8646 65.0616 42.8104C65.0616 42.7562 65.0616 42.6749 65.0616 42.6207C65.0616 42.5123 65.0345 42.3768 65.0074 42.2684C64.9803 42.0516 64.9261 41.8348 64.8719 41.6452C64.7635 41.2929 64.628 40.9406 64.4383 40.6154C64.1402 40.1005 63.7879 39.6127 63.3543 39.1792C62.9749 38.7727 62.5143 38.4475 61.9994 38.2036C61.3219 37.8784 60.5631 37.7158 59.8044 37.7158H55.4415V48.3386H59.8044H59.8586C60.6173 48.3386 61.349 48.176 62.0265 47.8237C62.5143 47.5798 62.9749 47.2546 63.3814 46.8481C63.7879 46.4416 64.1402 45.9539 64.4383 45.439C64.628 45.1138 64.7635 44.7615 64.8719 44.4092C64.9261 44.1924 64.9803 43.9757 65.0074 43.7589C65.0345 43.6505 65.0616 43.5421 65.0616 43.4066C65.0616 43.3524 65.0616 43.2982 65.0616 43.2169ZM78.5591 47.0378C79.6973 49.016 79.6973 51.4278 78.5591 53.4061C78.2068 54.0564 77.719 54.5984 77.1229 55.0049C76.6351 55.3843 76.0931 55.6824 75.4969 55.872C74.955 56.0888 74.3859 56.2243 73.7897 56.2785C73.6 56.3056 73.4374 56.3056 73.2477 56.3056H73.2206C73.0309 56.3056 72.8413 56.3056 72.6787 56.2785C72.0825 56.2243 71.5134 56.0888 70.9714 55.872C70.3753 55.6824 69.8333 55.3843 69.3455 55.0049C68.7493 54.5984 68.2615 54.0564 67.8822 53.4061C66.7711 51.4278 66.7711 49.016 67.8822 47.0378C68.2615 46.4146 68.7493 45.8455 69.3455 45.439C69.8333 45.0596 70.3753 44.7615 70.9714 44.5718C71.5134 44.355 72.0825 44.2195 72.6787 44.1653C72.8413 44.1382 73.0309 44.1382 73.2206 44.1382C73.4103 44.1382 73.6 44.1382 73.7897 44.1653C74.3859 44.2195 74.955 44.355 75.4969 44.5718C76.0931 44.7615 76.6351 45.0596 77.1229 45.439C77.719 45.8455 78.2068 46.4146 78.5591 47.0378ZM77.0145 52.6744C77.5835 51.0756 77.5835 49.3683 77.0145 47.7695C76.8519 47.2275 76.5809 46.7397 76.2828 46.252C76.0118 45.8184 75.6324 45.439 75.226 45.1409C74.6298 44.7344 73.9523 44.5176 73.2206 44.5176H73.1935C72.489 44.5176 71.8115 44.7344 71.2424 45.1409C70.8088 45.439 70.4566 45.8184 70.1856 46.252C69.8604 46.7397 69.6165 47.2275 69.4539 47.7695C68.8848 49.3683 68.8848 51.0756 69.4539 52.6744C69.6165 53.2164 69.8604 53.7312 70.1856 54.1919C70.4566 54.6255 70.8088 55.032 71.2424 55.3301C71.8386 55.7095 72.5161 55.9262 73.2206 55.9262H73.2477H73.2748C73.9794 55.9262 74.6569 55.7095 75.226 55.303C75.6595 55.0049 76.0118 54.6255 76.2828 54.1919C76.5809 53.7041 76.8519 53.2164 77.0145 52.6744ZM92.8067 56.2514L92.888 56.3056H89.0671L89.1484 56.2514C89.6904 55.7636 89.9885 55.0591 89.9885 54.3274V48.7721C89.9885 46.4958 89.3652 44.7615 87.8206 44.7615C86.7908 44.7886 85.8152 45.1951 85.0565 45.8997C84.5416 46.3875 84.0538 46.9565 83.6744 47.5527V54.3274C83.6744 55.0591 83.9725 55.7636 84.5145 56.2514L84.5958 56.3327H80.802L80.8562 56.2514C81.3981 55.7636 81.6962 55.0591 81.6962 54.3274V41.3742C81.6962 40.6154 81.8859 39.8837 82.2382 39.2063C82.4821 38.7456 82.8344 38.3662 83.2409 38.0952C83.5931 37.8513 83.9996 37.6616 84.4061 37.5261C84.8939 37.3906 85.4088 37.3093 85.9236 37.3093V37.7158C85.1378 37.6616 84.4061 38.1494 84.108 38.8811C83.9996 39.1792 83.8912 39.5043 83.837 39.8566C83.7286 40.3444 83.6744 40.8593 83.6744 41.3742V46.8752C84.7042 45.4932 86.3301 44.1382 88.1186 44.1382C88.4167 44.1111 88.7148 44.1382 89.0129 44.1924C89.2839 44.2466 89.5278 44.3008 89.7717 44.4092C90.1782 44.626 90.5575 44.897 90.8556 45.2493C91.4789 45.9539 91.9396 46.9836 91.9667 48.7992V54.3274C91.9667 55.0591 92.2648 55.7636 92.8067 56.2514ZM105.658 47.0378C106.796 49.016 106.796 51.4278 105.658 53.4061C105.306 54.0564 104.818 54.5984 104.222 55.0049C103.734 55.3843 103.192 55.6824 102.596 55.872C102.054 56.0888 101.485 56.2243 100.889 56.2785C100.699 56.3056 100.536 56.3056 100.347 56.3056H100.319C100.13 56.3056 99.9401 56.3056 99.7775 56.2785C99.1813 56.2243 98.6123 56.0888 98.0703 55.872C97.4741 55.6824 96.9321 55.3843 96.4443 55.0049C95.8482 54.5984 95.3604 54.0564 94.981 53.4061C93.87 51.4278 93.87 49.016 94.981 47.0378C95.3604 46.4146 95.8482 45.8455 96.4443 45.439C96.9321 45.0596 97.4741 44.7615 98.0703 44.5718C98.6123 44.355 99.1813 44.2195 99.7775 44.1653C99.9401 44.1382 100.13 44.1382 100.319 44.1382C100.509 44.1382 100.699 44.1382 100.889 44.1653C101.485 44.2195 102.054 44.355 102.596 44.5718C103.192 44.7615 103.734 45.0596 104.222 45.439C104.818 45.8455 105.306 46.4146 105.658 47.0378ZM104.113 52.6744C104.682 51.0756 104.682 49.3683 104.113 47.7695C103.951 47.2275 103.68 46.7397 103.382 46.252C103.111 45.8184 102.731 45.439 102.325 45.1409C101.729 44.7344 101.051 44.5176 100.319 44.5176H100.292C99.5878 44.5176 98.9103 44.7344 98.3413 45.1409C97.9077 45.439 97.5554 45.8184 97.2844 46.252C96.9592 46.7397 96.7153 47.2275 96.5527 47.7695C95.9837 49.3683 95.9837 51.0756 96.5527 52.6744C96.7153 53.2164 96.9592 53.7312 97.2844 54.1919C97.5554 54.6255 97.9077 55.032 98.3413 55.3301C98.9374 55.7095 99.6149 55.9262 100.319 55.9262H100.347H100.374C101.078 55.9262 101.756 55.7095 102.325 55.303C102.758 55.0049 103.111 54.6255 103.382 54.1919C103.68 53.7041 103.951 53.2164 104.113 52.6744ZM117.187 48.7992V48.7721C117.187 46.4958 116.564 44.7615 115.019 44.7615C113.989 44.7886 112.987 45.1951 112.255 45.8997C111.713 46.4146 111.225 46.9836 110.819 47.6069C110.846 47.7966 110.846 47.9863 110.846 48.176V54.3274C110.846 55.0591 111.171 55.7636 111.686 56.2514L111.767 56.3056H107.973L108.055 56.2514C108.597 55.7636 108.895 55.0591 108.895 54.3274V48.176C108.895 47.6882 108.841 47.1733 108.732 46.6584C108.678 46.3333 108.57 46.0081 108.461 45.6829C108.163 44.9512 107.431 44.4634 106.646 44.5176V44.1382C107.16 44.1382 107.675 44.1924 108.163 44.355C108.57 44.4634 108.976 44.6531 109.328 44.897C109.735 45.1951 110.087 45.5745 110.331 46.0081C110.521 46.3333 110.656 46.7126 110.738 47.0649C111.74 45.6016 113.42 44.1382 115.317 44.1382C115.615 44.1111 115.913 44.1382 116.211 44.1924C116.455 44.2466 116.726 44.3008 116.943 44.4092C117.377 44.626 117.756 44.897 118.054 45.2493C118.677 45.9539 119.138 46.9836 119.138 48.7992V54.3274C119.138 55.0591 119.463 55.7636 120.005 56.2514L120.06 56.3056H116.266L116.347 56.2514C116.889 55.7636 117.187 55.0591 117.187 54.3274V48.7992ZM138.066 56.3056H134.272C134.381 55.9533 134.3 55.5469 134.056 55.2217L127.281 46.6584L124.3 50.1542V54.3274C124.3 55.0591 124.598 55.7636 125.14 56.2514L125.221 56.3056H121.428L121.482 56.2514C122.024 55.7636 122.322 55.0591 122.322 54.3274V39.3147C122.322 38.583 122.024 37.8784 121.482 37.3906L121.428 37.3093H125.221L125.14 37.3906C124.598 37.8784 124.3 38.583 124.3 39.3147V49.558L132.023 40.4528C132.809 39.5314 132.809 38.2307 132.05 37.3093H135.844L134.543 38.2849C134.245 38.5288 133.947 38.7998 133.703 39.0979L128.555 45.1138L136.278 54.8694C136.711 55.4385 137.28 55.8991 137.904 56.2243L138.066 56.3056ZM148.043 54.3274C148.043 55.0591 148.368 55.7636 148.883 56.2514L148.965 56.3056H146.092V55.0049C145.279 55.8178 144.168 56.2785 143.003 56.2514H142.84C142.325 56.2514 141.783 56.1701 141.269 56.0346C140.835 55.8991 140.429 55.7095 140.076 55.4385C139.643 55.1133 139.317 54.7068 139.074 54.219C138.748 53.5144 138.586 52.7557 138.586 51.9969V48.2031V48.176C138.586 47.6882 138.532 47.1733 138.423 46.6584C138.369 46.3333 138.261 46.0081 138.152 45.6829C137.854 44.9512 137.122 44.4905 136.337 44.5176V44.1382C136.851 44.1382 137.366 44.1924 137.854 44.355C138.261 44.4634 138.667 44.6531 139.019 44.897C139.426 45.1951 139.778 45.5745 140.022 46.0081C140.374 46.6855 140.564 47.4443 140.537 48.176H140.564V51.9969C140.564 52.5389 140.591 53.108 140.7 53.6499C140.754 54.0022 140.835 54.3274 140.971 54.6797C141.079 54.9778 141.296 55.2488 141.54 55.4656C141.865 55.6824 142.244 55.8178 142.624 55.8449C142.705 55.8449 142.786 55.872 142.84 55.872H143.003C144.222 55.872 145.333 55.3301 146.092 54.4087V46.1165C146.092 45.3848 145.794 44.7073 145.252 44.1924L145.171 44.1382H148.965L148.883 44.1924C148.368 44.7073 148.043 45.3848 148.043 46.1165V54.3274Z" fill="#406425"/>
</g>
<defs>
<linearGradient id="paint0_linear_1_13" x1="10.7448" y1="47.4367" x2="47.0906" y2="47.4367" gradientUnits="userSpaceOnUse">
<stop stop-color="#24420E"/>
<stop offset="0.0390687" stop-color="#1A581E"/>
<stop offset="0.0967627" stop-color="#0F7331"/>
<stop offset="0.1558" stop-color="#07863E"/>
<stop offset="0.2164" stop-color="#029146"/>
<stop offset="0.2809" stop-color="#009549"/>
<stop offset="0.6685" stop-color="#9EBC2E"/>
<stop offset="0.8876" stop-color="#9EBC2E"/>
<stop offset="1" stop-color="#C3D82E"/>
</linearGradient>
<linearGradient id="paint1_linear_1_13" x1="9.95965" y1="42.1449" x2="21.2141" y2="42.1449" gradientUnits="userSpaceOnUse">
<stop stop-color="#24420E"/>
<stop offset="0.0390687" stop-color="#1A581E"/>
<stop offset="0.0967627" stop-color="#0F7331"/>
<stop offset="0.1558" stop-color="#07863E"/>
<stop offset="0.2164" stop-color="#029146"/>
<stop offset="0.2809" stop-color="#009549"/>
<stop offset="0.6685" stop-color="#9EBC2E"/>
<stop offset="0.8876" stop-color="#9EBC2E"/>
<stop offset="1" stop-color="#C3D82E"/>
</linearGradient>
<clipPath id="clip0_1_13">
<rect width="165" height="123.861" fill="white" transform="translate(0 -13.9303)"/>
</clipPath>
</defs>
</svg>
