<?xml version="1.0" standalone="no"?>
<!DOCTYPE svg PUBLIC "-//W3C//DTD SVG 20010904//EN"
 "http://www.w3.org/TR/2001/REC-SVG-20010904/DTD/svg10.dtd">
<svg version="1.0" xmlns="http://www.w3.org/2000/svg"
 width="2700.000000pt" height="1080.000000pt" viewBox="0 0 2700.000000 1080.000000"
 preserveAspectRatio="xMidYMid meet">

<g transform="translate(0.000000,1080.000000) scale(0.100000,-0.100000)"
fill="#000000" stroke="none">
<path d="M18207 10410 c-47 -12 -89 -34 -107 -54 -7 -9 -15 -42 -19 -74 -6
-54 -8 -57 -34 -60 -23 -3 -37 5 -72 43 -32 35 -48 46 -66 43 -20 -2 -24 -8
-21 -35 2 -23 -2 -34 -17 -42 -31 -17 -39 -14 -88 39 -41 45 -50 50 -88 50
-53 0 -68 -17 -75 -84 l-5 -51 -51 -5 c-58 -6 -81 -21 -101 -67 -20 -49 -16
-85 17 -148 17 -32 29 -59 28 -60 -2 -1 -22 -12 -45 -24 -33 -16 -43 -27 -43
-45 0 -24 -17 -36 -50 -36 -24 0 -35 20 -50 94 -16 80 -43 106 -109 106 -74 0
-105 -30 -106 -101 0 -49 2 -54 23 -57 13 -2 30 2 38 8 11 10 14 9 14 -8 0
-19 -5 -20 -52 -15 -44 4 -57 1 -74 -15 -11 -11 -42 -29 -67 -40 -51 -23 -58
-39 -27 -67 23 -21 26 -45 5 -45 -33 0 -65 24 -76 59 -15 46 -74 137 -95 145
-47 18 -134 -16 -158 -63 -21 -40 -22 -200 -2 -239 30 -57 129 -117 211 -129
30 -4 49 -12 56 -25 17 -31 2 -40 -56 -33 -122 16 -208 -61 -140 -125 14 -13
25 -27 25 -31 0 -4 -22 -12 -50 -19 -42 -10 -52 -9 -72 4 -31 22 -90 20 -119
-3 -13 -10 -28 -34 -34 -52 -7 -19 -15 -33 -18 -31 -4 1 -27 2 -52 2 -44 0
-45 1 -45 31 0 17 5 39 10 49 16 29 -8 36 -35 10 -14 -13 -30 -41 -38 -64 -7
-23 -20 -42 -28 -43 -8 -2 -26 15 -41 37 -25 36 -32 40 -70 40 -33 0 -39 3
-30 12 7 7 12 22 12 35 0 20 5 23 39 23 48 0 92 15 108 37 29 37 -65 133 -156
160 -104 30 -250 3 -267 -49 -8 -25 12 -82 36 -103 11 -10 20 -22 20 -26 0
-20 -112 -59 -185 -64 -42 -3 -84 -9 -93 -14 -9 -5 -28 -39 -40 -75 -18 -50
-31 -70 -52 -81 -36 -19 -100 -93 -100 -117 0 -13 7 -18 25 -18 37 0 31 -26
-7 -35 -41 -9 -87 -9 -160 0 -48 6 -59 5 -64 -9 -8 -21 8 -40 53 -61 l36 -17
-32 -14 c-36 -15 -46 -33 -37 -68 8 -31 59 -83 100 -101 23 -10 26 -14 11 -14
-11 -1 -33 8 -50 19 -34 22 -43 24 -65 10 -12 -8 -5 -19 40 -61 30 -28 63 -57
74 -65 23 -16 23 -16 -31 -36 -34 -13 -41 -13 -36 -2 7 18 -7 18 -35 -2 -16
-11 -34 -14 -61 -9 -32 5 -42 2 -68 -22 -17 -16 -34 -44 -37 -63 -14 -65 -17
-73 -29 -61 -16 16 -72 14 -87 -4 -9 -11 -7 -19 14 -40 14 -14 39 -28 56 -31
43 -9 45 -18 11 -56 -33 -37 -53 -32 -27 6 9 14 16 28 16 31 0 13 -22 3 -42
-20 -27 -31 -33 -31 -73 -1 -46 35 -80 42 -111 21 -21 -14 -24 -21 -19 -48 4
-18 22 -56 41 -84 28 -44 34 -62 34 -108 0 -54 -1 -56 -34 -70 -43 -18 -50
-29 -36 -54 8 -16 7 -22 -8 -30 -12 -6 -24 -36 -36 -86 -10 -42 -24 -79 -31
-81 -7 -3 -30 4 -51 15 -82 44 -106 14 -45 -55 28 -32 39 -53 35 -66 -3 -10 2
-32 10 -50 21 -41 20 -45 -8 -52 -14 -3 -35 -20 -48 -36 -13 -17 -40 -51 -60
-76 -21 -25 -38 -53 -38 -63 0 -9 14 -30 30 -46 30 -29 39 -59 20 -70 -6 -4
-8 -15 -5 -26 8 -24 -19 -60 -75 -100 -40 -29 -41 -31 -26 -53 13 -21 13 -25
-4 -42 -32 -33 -119 -168 -114 -176 3 -4 18 -8 34 -8 21 0 33 -8 49 -34 12
-18 21 -36 21 -38 0 -3 -18 -8 -39 -12 -55 -8 -73 -30 -69 -78 l3 -40 -47 -2
c-68 -3 -98 -33 -98 -100 0 -82 -2 -83 -121 -63 -118 20 -153 38 -227 116
l-53 56 123 6 c103 6 132 11 180 33 35 16 74 26 102 26 42 0 66 13 51 28 -4 4
-44 9 -90 13 -74 4 -90 9 -134 40 -30 20 -49 39 -46 47 3 7 -6 35 -20 62 -52
102 -117 149 -190 137 -22 -4 -43 1 -64 14 -35 21 -38 31 -16 49 24 20 18 41
-25 85 l-39 40 180 -3 c130 -3 184 -1 194 8 21 17 14 24 -58 58 -34 16 -80 41
-101 55 -21 15 -52 27 -68 27 -24 0 -51 20 -136 102 -59 55 -111 105 -117 110
-5 4 9 8 32 8 38 0 42 -2 57 -40 18 -45 26 -49 44 -20 7 11 18 20 25 20 6 0
47 -23 90 -50 43 -28 80 -50 83 -50 2 0 4 6 4 14 0 17 -69 76 -117 100 -18 9
-47 16 -65 16 -34 0 -29 15 7 22 11 2 21 11 23 20 2 12 -7 18 -37 23 -37 6
-42 11 -69 68 -34 73 -73 115 -110 119 -21 2 -32 14 -49 48 -12 25 -22 55 -22
67 -1 12 -5 25 -11 28 -5 3 -19 37 -30 75 -18 62 -24 70 -45 70 -13 0 -28 -7
-33 -16 -5 -9 -14 -14 -21 -10 -20 12 -12 25 24 40 21 9 35 22 35 32 0 9 -22
41 -50 70 -66 69 -65 78 8 70 101 -11 326 27 353 61 23 26 -8 36 -136 43 -100
5 -129 10 -145 25 -31 28 -24 33 31 23 78 -14 91 -3 36 32 -48 30 -126 122
-153 180 -30 62 -58 66 -120 15 -49 -40 -63 -38 -102 19 -30 45 -28 52 19 60
24 4 50 16 63 31 13 14 29 25 35 25 20 0 105 47 126 70 16 18 17 23 5 30 -22
14 -50 12 -105 -9 -82 -31 -183 -5 -207 53 -7 17 -36 54 -64 82 l-52 52 35 62
c19 34 32 68 29 75 -3 8 -32 24 -66 36 -90 32 -110 52 -110 103 0 23 7 51 15
62 12 19 12 34 -6 130 -12 64 -17 126 -14 150 6 39 4 42 -24 52 -16 6 -35 23
-43 39 -13 26 -18 28 -70 28 -31 0 -60 -3 -63 -7 -4 -4 -10 -33 -14 -65 -9
-74 -16 -86 -48 -78 -19 4 -24 3 -20 -8 6 -17 -1 -28 -28 -43 -12 -7 -22 -26
-26 -47 -3 -19 -24 -66 -46 -103 -22 -38 -45 -82 -51 -99 -22 -57 -60 -200
-60 -226 1 -36 -74 -189 -106 -218 -44 -41 -30 -61 40 -61 39 0 39 1 20 -36
-17 -32 -13 -44 15 -44 16 0 18 5 13 25 -8 33 13 33 28 1 18 -41 5 -57 -41
-50 -62 10 -85 -1 -130 -61 -28 -37 -49 -55 -64 -55 -33 0 -118 -53 -161 -100
-35 -39 -38 -46 -31 -84 4 -22 9 -55 12 -71 l5 -30 -65 0 c-57 0 -70 -4 -108
-31 -24 -18 -61 -39 -81 -47 -41 -17 -59 -56 -38 -82 11 -13 8 -17 -19 -26
-56 -20 -36 -32 40 -26 52 4 69 3 66 -6 -2 -7 -14 -11 -26 -10 -12 2 -20 -1
-17 -5 9 -15 -58 -70 -99 -81 -22 -6 -71 -11 -110 -11 -79 0 -108 -11 -87 -32
9 -9 43 -13 105 -12 81 0 101 4 172 34 58 24 103 35 164 40 81 7 84 8 123 48
22 23 48 42 59 42 23 0 22 -1 -28 -71 -39 -54 -40 -60 -13 -84 26 -24 26 -26
-15 -75 -54 -65 -45 -119 15 -84 38 23 45 15 24 -30 -15 -30 -23 -36 -49 -36
-46 0 -92 -18 -156 -61 -30 -20 -86 -52 -122 -69 -78 -37 -97 -64 -97 -140 0
-89 -23 -118 -142 -178 -70 -35 -132 -58 -196 -71 -97 -21 -112 -27 -112 -41
0 -14 91 -40 143 -40 55 0 187 36 187 50 0 12 9 14 -85 -15 -80 -25 -155 -33
-155 -16 0 5 26 12 57 16 32 4 83 15 113 24 31 10 74 15 97 13 23 -2 66 3 95
11 76 23 158 28 158 10 0 -7 -35 -50 -78 -96 -101 -106 -168 -202 -194 -281
-25 -74 -21 -92 22 -101 31 -7 31 -7 11 -22 -27 -18 -27 -40 -1 -48 27 -8 25
-27 -5 -55 -20 -19 -31 -22 -66 -17 -66 9 -147 -9 -186 -40 -20 -15 -63 -48
-97 -72 -116 -82 -135 -111 -99 -146 16 -16 15 -18 -8 -36 -93 -72 -254 -169
-282 -169 -7 0 -23 13 -35 29 -27 36 -70 47 -128 31 -43 -12 -46 -12 -84 19
-68 54 -124 64 -216 37 -84 -25 -211 -47 -228 -40 -25 10 -58 80 -50 108 9 36
39 60 134 107 85 41 85 41 160 33 104 -11 179 -7 206 11 32 21 30 32 -11 69
-27 25 -35 40 -35 68 0 80 107 232 209 297 57 37 105 41 196 17 89 -24 129
-21 159 11 30 32 48 99 39 145 -15 83 -56 112 -114 82 -17 -8 -33 -13 -36 -10
-3 3 1 29 9 58 8 29 13 59 10 66 -7 23 -47 32 -86 20 -70 -22 -76 35 -7 65 21
10 46 26 56 37 36 39 28 159 -13 210 -13 17 -34 24 -87 30 -39 5 -83 13 -99
17 -29 9 -29 10 38 38 89 38 116 70 116 138 0 117 -50 195 -131 204 -44 5 -47
4 -97 -47 -32 -33 -58 -50 -69 -48 -20 4 -21 21 -9 105 8 51 7 53 -19 63 -20
8 -40 6 -78 -5 -71 -21 -119 -20 -115 2 3 18 31 35 83 50 17 5 30 15 30 23 1
8 6 24 12 35 6 11 16 38 23 60 7 22 17 45 22 52 11 14 112 38 228 53 47 6 95
18 107 26 33 21 47 84 34 158 -14 81 -33 96 -117 96 l-64 0 -1 33 c-1 17 0 41
1 52 3 25 48 91 90 130 48 45 63 81 54 124 -4 20 -8 53 -9 73 -1 20 -7 43 -14
52 -28 33 -169 49 -205 23 -17 -12 -17 -16 3 -72 14 -40 19 -71 15 -95 -12
-67 -46 -81 -69 -27 -29 71 -87 88 -178 53 -53 -20 -72 -50 -62 -96 4 -19 2
-29 -9 -33 -37 -14 -53 60 -31 145 18 73 41 100 110 135 72 36 105 70 105 109
0 43 -42 78 -112 94 -71 17 -99 32 -137 75 -49 57 -37 98 34 116 59 15 72 31
51 63 -16 26 -69 46 -118 46 -25 0 -28 3 -28 36 0 20 9 68 21 106 11 38 19 87
17 110 -4 57 -34 77 -136 90 -94 12 -139 6 -177 -24 -22 -17 -26 -27 -22 -57
2 -20 11 -53 21 -73 l16 -38 -55 0 c-100 0 -164 -46 -152 -109 6 -28 5 -29
-61 -45 -129 -32 -120 -66 23 -91 117 -21 165 -49 179 -107 5 -23 2 -30 -25
-43 -35 -19 -34 -19 -58 27 -25 47 -55 59 -128 55 -123 -6 -143 -53 -84 -197
17 -41 31 -76 31 -77 0 -2 -18 -3 -41 -3 -45 0 -79 -14 -79 -34 0 -7 22 -32
50 -57 27 -24 50 -51 50 -60 0 -9 -18 -33 -40 -52 l-39 -36 -72 33 c-56 26
-75 40 -85 64 -10 24 -21 32 -48 38 -58 10 -83 -1 -96 -43 -6 -21 -13 -44 -16
-51 -3 -10 -13 -6 -37 14 -42 36 -88 54 -134 54 -49 0 -75 -18 -98 -69 l-18
-41 32 -38 c17 -20 49 -60 71 -89 42 -55 44 -56 162 -67 31 -3 63 -9 72 -12
28 -11 15 -94 -18 -116 -6 -4 -53 -8 -104 -8 -51 0 -102 -5 -113 -10 -24 -14
-24 -46 1 -87 22 -37 57 -57 126 -73 73 -18 134 -43 134 -57 0 -7 -23 -24 -50
-38 -52 -26 -77 -61 -66 -90 3 -9 28 -26 55 -38 l50 -20 -20 -25 c-26 -34 -25
-43 21 -95 42 -47 47 -65 30 -98 -15 -26 -20 -25 -81 21 -89 66 -151 50 -168
-45 -20 -109 29 -200 140 -255 54 -28 59 -33 74 -82 8 -28 15 -67 15 -85 0
-38 -25 -93 -42 -93 -11 0 -95 83 -130 128 -14 17 -28 22 -65 22 -27 -1 -59
-7 -73 -15 -36 -20 -38 -19 -49 23 -16 56 -13 114 8 163 31 72 33 86 16 103
-25 24 -74 19 -143 -15 -77 -37 -96 -35 -100 9 -4 39 7 58 93 162 120 145 145
205 114 274 -13 28 -64 56 -103 56 l-26 0 2 110 c1 76 -3 115 -11 123 -9 8
-48 11 -135 9 -122 -3 -124 -3 -144 22 -25 32 -45 137 -41 213 l4 58 -44 3
c-53 4 -108 -29 -146 -87 -27 -40 -50 -149 -41 -187 9 -34 54 -83 97 -105 43
-22 79 -77 59 -89 -7 -4 -35 -11 -62 -14 -63 -9 -125 -33 -132 -53 -9 -23 28
-97 74 -147 47 -51 47 -71 2 -81 -43 -9 -140 -69 -190 -118 l-44 -42 6 50 c6
41 3 58 -17 95 -32 59 -72 85 -159 105 -78 17 -119 13 -157 -16 -17 -14 -40
-19 -80 -19 l-56 0 -43 81 c-47 87 -62 98 -143 106 -39 4 -49 10 -64 37 -24
42 -74 95 -107 112 -39 20 -117 18 -155 -6 -39 -23 -48 -54 -34 -106 6 -22 11
-60 11 -85 0 -53 -8 -59 -71 -59 -36 0 -40 3 -64 50 -36 71 -105 110 -195 110
-43 0 -73 -5 -88 -16 -20 -14 -25 -13 -56 1 -56 27 -122 106 -164 197 -51 110
-87 141 -187 163 -82 19 -139 15 -164 -10 -11 -10 -17 -40 -19 -90 -3 -57 -8
-75 -19 -75 -32 0 -56 24 -83 85 -28 63 -29 63 -82 75 -39 9 -63 9 -93 1 -76
-21 -275 -228 -275 -287 0 -16 29 -52 94 -117 105 -105 129 -151 107 -205 -27
-64 -128 -108 -213 -91 -88 16 -178 -8 -199 -55 -17 -36 1 -57 90 -109 90 -52
111 -81 111 -150 0 -67 -20 -79 -143 -87 -147 -10 -167 -25 -167 -125 0 -64
25 -121 67 -155 26 -21 35 -22 140 -17 l112 5 22 -35 c18 -29 21 -45 16 -96
-5 -69 -33 -147 -51 -147 -7 0 -41 18 -77 40 -95 60 -128 73 -172 67 -55 -8
-67 -22 -67 -80 0 -56 -28 -167 -42 -167 -17 0 -113 53 -156 86 -60 45 -103
58 -177 51 l-62 -6 -6 41 c-3 23 -15 54 -26 69 -11 15 -23 46 -27 69 -7 43
-32 65 -62 55 -14 -4 -21 -25 -31 -93 -7 -48 -22 -134 -34 -191 -24 -113 -16
-104 -99 -125 -27 -6 -28 -5 -28 32 0 22 4 62 10 91 5 28 7 57 4 65 -8 21 -68
38 -120 34 -49 -4 -52 2 -30 56 10 24 22 35 45 39 33 7 42 31 15 41 -9 3 -35
6 -59 6 -66 0 -101 10 -136 39 -29 25 -31 29 -19 52 7 13 26 41 42 62 17 21
27 44 24 52 -9 23 -78 18 -149 -10 -34 -14 -96 -31 -138 -37 -73 -10 -79 -10
-108 11 -26 19 -31 29 -31 65 0 49 -31 103 -70 123 -14 7 -58 16 -98 20 l-74
8 38 50 c54 72 203 242 263 300 28 27 51 55 51 62 0 44 -152 66 -259 39 -52
-13 -66 -14 -73 -4 -4 7 -8 66 -8 132 l0 118 -35 -6 c-19 -3 -51 -9 -70 -12
-27 -5 -36 -2 -41 10 -8 21 13 105 49 196 38 95 72 266 63 314 -4 22 -16 42
-31 52 -58 38 -199 33 -286 -12 -28 -14 -53 -23 -57 -20 -3 3 -9 59 -13 123
-5 65 -11 131 -15 146 -8 36 -45 54 -78 39 -19 -8 -26 -23 -35 -75 -17 -98
-14 -185 9 -236 35 -77 34 -79 -76 -79 -53 0 -101 -5 -106 -10 -17 -17 -38
-125 -31 -162 3 -19 12 -49 20 -67 23 -56 21 -58 -76 -59 l-88 0 -23 69 c-19
60 -26 70 -56 83 -30 12 -39 12 -70 -1 -20 -8 -52 -15 -70 -15 -41 0 -44 17
-14 75 12 24 20 59 20 91 0 79 1 81 75 76 39 -3 77 1 95 8 30 13 34 21 44 94
3 21 12 43 20 50 20 16 56 78 56 98 0 31 -50 59 -100 57 -44 -2 -48 0 -95 50
-85 91 -272 165 -334 132 -25 -14 -27 -43 -6 -121 23 -85 23 -85 -38 -84 -28
1 -70 9 -92 18 -42 16 -83 20 -109 10 -12 -4 -16 -20 -16 -54 0 -63 -16 -76
-64 -53 -42 19 -43 24 -17 47 30 28 35 70 15 129 -21 60 -38 83 -76 103 -20
11 -28 22 -28 42 0 15 -7 38 -16 51 -15 21 -22 23 -71 18 -50 -5 -57 -3 -88
25 -30 26 -35 36 -35 74 0 35 4 44 18 44 25 0 49 18 37 28 -23 17 -52 69 -58
103 -5 34 -2 40 56 97 39 37 77 64 102 72 49 15 115 51 115 62 0 14 -49 28
-101 28 -27 0 -49 4 -49 10 0 18 106 81 146 87 41 6 64 19 64 35 0 5 -46 56
-102 114 -118 121 -127 124 -209 65 -68 -49 -110 -66 -204 -86 -106 -22 -138
-19 -211 16 -58 28 -72 31 -127 26 -80 -7 -137 -24 -144 -43 -3 -10 9 -31 33
-55 l38 -39 -31 6 c-41 8 -83 -2 -83 -21 0 -17 -56 -49 -71 -39 -6 4 -4 14 6
30 15 23 15 24 -11 24 -33 0 -94 -59 -94 -91 0 -13 5 -43 10 -67 6 -24 8 -47
5 -52 -3 -6 -28 6 -55 24 -64 44 -128 68 -170 64 -45 -4 -52 -28 -8 -29 l33
-1 -37 -7 c-45 -9 -145 -68 -165 -98 -16 -25 -17 -24 116 -182 l54 -65 -41
-14 c-40 -13 -41 -14 -26 -37 15 -23 14 -23 -80 -60 -53 -20 -98 -41 -102 -46
-3 -6 2 -16 11 -23 16 -11 12 -16 -39 -44 l-56 -32 0 -1660 c0 -1100 3 -1660
10 -1660 6 0 10 -8 10 -18 0 -10 6 -24 12 -31 11 -10 9 -16 -10 -31 l-22 -18
2 -289 3 -288 47 -5 c26 -3 50 -9 53 -12 4 -3 11 -68 16 -145 5 -76 14 -191
19 -256 5 -65 6 -140 3 -168 -5 -39 -2 -53 12 -69 19 -21 39 -118 50 -245 13
-154 76 -471 111 -553 12 -29 12 -37 -1 -62 -8 -16 -15 -36 -15 -45 0 -17 -16
-20 -25 -5 -3 5 -23 14 -44 20 -54 14 -86 0 -111 -49 -17 -35 -23 -39 -43 -32
-12 4 -34 11 -49 15 l-28 6 0 -1875 0 -1875 13500 0 13500 0 0 1212 0 1211
-26 -24 c-57 -53 -69 -112 -29 -147 16 -14 25 -32 25 -52 0 -30 0 -30 -57 -30
-72 0 -125 24 -178 79 l-39 41 12 45 c16 61 15 120 -3 135 -10 8 -31 10 -65 5
l-51 -7 22 43 c33 63 32 158 -1 219 -36 65 -96 103 -169 108 l-60 4 -6 40
c-11 65 -11 447 0 528 10 72 11 75 39 78 49 6 54 -14 13 -52 -31 -29 -37 -41
-37 -75 0 -35 3 -41 21 -41 20 0 21 4 17 44 l-5 45 41 3 c24 2 55 -4 76 -14
43 -21 84 -14 77 13 -6 24 -8 24 57 -8 l54 -26 -19 -31 c-23 -37 -24 -79 -4
-96 13 -11 8 -20 -33 -65 -74 -81 -100 -148 -68 -174 9 -8 47 -11 104 -10 71
2 96 -1 116 -14 30 -20 47 -69 25 -76 -24 -7 -81 -70 -74 -81 3 -5 17 -10 31
-10 27 0 74 -40 74 -63 0 -21 -18 -33 -80 -50 -31 -9 -67 -28 -80 -42 l-23
-25 19 -36 c38 -73 85 -96 217 -109 l67 -7 0 1005 0 1006 -37 3 c-35 3 -39 6
-48 45 -6 23 -13 45 -18 49 -14 14 -7 24 18 24 65 0 96 91 74 217 -9 50 -9 68
0 71 8 3 11 162 11 597 0 555 -1 593 -17 600 -17 6 -17 7 0 19 14 11 17 30 17
124 l0 111 -60 -40 c-62 -41 -78 -68 -64 -111 6 -20 3 -19 -20 8 -14 18 -26
34 -26 37 0 2 18 22 40 44 25 26 38 46 35 59 -3 10 3 35 13 54 15 30 22 35 48
32 l30 -3 3 115 2 115 -28 -2 c-27 -2 -28 1 -48 76 -22 85 -43 109 -76 89 -13
-8 -19 -8 -22 1 -2 7 10 17 27 23 41 14 39 35 -6 57 -37 17 -38 18 -38 72 0
46 6 64 34 108 19 28 37 66 41 84 5 27 2 34 -19 48 -31 21 -65 14 -111 -21
-40 -30 -46 -30 -73 1 -20 23 -42 33 -42 20 0 -3 7 -17 16 -31 26 -38 6 -43
-27 -6 -34 38 -32 47 11 56 17 3 42 17 56 31 21 21 23 29 14 40 -15 18 -71 20
-87 4 -12 -12 -15 -4 -29 61 -3 19 -20 47 -37 63 -26 24 -36 27 -68 22 -27 -5
-45 -2 -61 9 -28 20 -42 20 -35 2 5 -11 -2 -11 -36 2 -54 20 -54 20 -31 36 11
8 44 37 74 65 45 42 52 53 40 61 -21 14 -29 13 -66 -11 -19 -11 -42 -19 -51
-16 -14 3 -10 7 15 17 50 19 42 43 -13 38 -49 -3 -72 18 -39 37 9 6 26 18 38
27 l21 17 -30 58 c-37 71 -58 93 -89 93 -22 0 -26 7 -36 56 -9 40 -18 58 -33
65 -16 7 -30 34 -51 100 -18 54 -37 94 -47 100 -10 5 -53 11 -96 14 -63 4 -91
12 -146 40 -40 20 -91 38 -123 41 -44 6 -54 10 -54 25 0 29 -29 22 -36 -8 -4
-16 -16 -34 -26 -41 -31 -22 -17 -71 24 -84 10 -4 10 -8 -1 -21 -9 -12 -29
-17 -62 -17 -53 0 -70 -15 -84 -75 -10 -44 -33 -65 -71 -65 -18 0 -45 -5 -61
-11 -26 -10 -27 -12 -10 -23 23 -18 22 -38 -5 -63 -27 -23 -110 -65 -117 -57
-3 2 5 25 17 49 12 25 22 65 22 88 0 23 3 53 7 66 5 22 9 23 55 17 101 -14
148 18 148 98 0 21 8 40 24 55 13 12 32 37 41 56 17 31 18 35 2 59 -18 27 -70
43 -108 33 -17 -5 -33 7 -73 50 -38 42 -72 66 -133 95 -102 48 -168 58 -202
31 l-23 -19 21 -83 c12 -46 20 -85 19 -87 -11 -11 -112 -4 -159 11 -33 10 -68
15 -83 11 -24 -6 -26 -11 -26 -57 0 -34 -4 -51 -15 -55 -14 -6 -85 13 -85 23
0 3 11 18 25 35 30 35 31 57 7 125 -21 60 -35 79 -74 99 -20 11 -28 22 -28 42
0 51 -21 67 -85 65 -53 -3 -60 0 -91 31 -26 26 -34 42 -34 70 0 28 4 36 18 36
42 1 46 16 13 63 -49 72 -44 103 29 170 39 35 81 62 118 75 117 43 120 73 7
80 -36 2 -62 8 -59 13 14 23 104 74 149 84 31 7 51 17 53 27 4 21 -197 228
-220 228 -9 0 -47 -21 -84 -46 -89 -61 -159 -85 -269 -91 -83 -5 -94 -3 -139
21 -57 30 -134 35 -211 11 -67 -20 -71 -33 -28 -77 l37 -38 -48 0 c-37 0 -49
-4 -53 -17 -2 -10 -20 -25 -39 -35 -30 -14 -36 -14 -41 -2 -3 8 0 21 7 29 20
24 3 30 -35 12 -57 -27 -70 -58 -58 -130 6 -34 8 -65 4 -69 -3 -4 -32 11 -64
32 -78 53 -151 73 -186 51 -7 -5 -11 -13 -7 -19 3 -6 -18 -25 -46 -42 -64 -39
-98 -69 -98 -86 0 -8 38 -59 85 -115 47 -55 83 -105 80 -109 -3 -5 -19 -11
-35 -15 -33 -7 -34 -9 -20 -35 13 -24 3 -31 -93 -65 -85 -31 -99 -42 -73 -61
15 -11 11 -16 -45 -49 -34 -19 -69 -46 -79 -58 -15 -18 -27 -21 -73 -19 -63 3
-107 -11 -107 -33 0 -8 11 -17 25 -21 33 -8 32 -19 -10 -65 -28 -31 -34 -45
-29 -64 3 -14 2 -25 -4 -25 -21 0 -72 -59 -72 -83 0 -22 -5 -25 -61 -31 -34
-3 -82 -6 -106 -6 -52 0 -94 -19 -116 -54 -26 -39 -67 -155 -67 -189 0 -72 71
-127 165 -127 25 0 45 -4 45 -10 0 -5 -4 -10 -9 -10 -5 0 -9 -6 -8 -12 2 -50
-4 -59 -50 -79 -26 -11 -51 -25 -55 -32 -5 -8 -9 -6 -14 6 -8 22 9 43 66 80
29 18 36 26 20 22 -65 -19 -140 -76 -140 -106 0 -10 -3 -19 -7 -19 -28 0 -147
23 -191 36 -84 26 -172 1 -172 -49 0 -15 -17 -34 -58 -62 -53 -37 -61 -39
-117 -37 -110 6 -143 -26 -106 -101 l21 -42 -22 -15 c-61 -40 -88 -73 -88
-103 0 -17 7 -38 16 -48 13 -14 13 -21 4 -40 -7 -13 -10 -44 -8 -75 4 -50 3
-54 -17 -54 -13 0 -28 -7 -35 -15 -10 -13 -8 -22 14 -53 38 -56 35 -61 -37
-59 -58 2 -68 -1 -125 -38 -61 -40 -62 -40 -62 -87 0 -52 -16 -65 -26 -20 -3
15 -10 36 -15 47 -5 11 -16 40 -23 65 -14 49 -41 64 -62 36 -10 -14 -13 -14
-23 -2 -9 11 -5 16 18 26 46 19 45 36 -4 86 -58 59 -58 68 4 60 54 -7 169 6
249 30 41 11 53 19 50 32 -3 14 -21 18 -112 24 -100 7 -136 17 -136 39 0 4 23
5 50 2 28 -3 50 -3 50 0 0 4 -18 18 -40 32 -40 26 -97 94 -125 151 -21 44 -47
48 -96 12 -47 -34 -61 -32 -89 14 -26 43 -25 48 9 48 16 0 42 10 58 23 15 13
43 29 62 37 42 17 93 59 85 71 -8 14 -57 11 -99 -7 -64 -27 -146 0 -176 58
-19 36 -19 39 -2 44 38 11 88 43 91 58 5 21 -40 31 -79 17 -36 -13 -89 -15
-89 -3 0 4 9 22 20 40 33 54 27 65 -50 99 -79 35 -94 61 -67 117 13 28 13 41
0 116 -8 47 -12 102 -10 123 5 33 2 39 -23 52 -16 8 -31 24 -35 34 -8 25 -37
35 -81 27 -40 -8 -48 -18 -46 -64 2 -47 -14 -75 -39 -67 -13 4 -19 2 -19 -9 0
-28 -78 -20 -131 13 -43 27 -47 33 -53 80 -4 31 -16 61 -31 80 -32 37 -32 59
0 71 31 12 32 26 3 41 -12 6 -32 24 -45 39 -12 15 -37 30 -54 34 -40 8 -114
-24 -124 -53 -3 -12 -11 -21 -16 -21 -18 0 -8 23 26 62 20 21 38 52 42 68 3
17 12 30 19 30 8 0 22 9 31 20 10 12 30 20 48 20 16 0 37 5 45 10 33 22 -27
36 -123 31 -27 -2 -45 4 -68 23 -26 22 -40 26 -96 26 -101 0 -173 -48 -173
-114 0 -23 -4 -26 -35 -26 -19 0 -35 4 -35 9 0 17 94 110 130 129 65 35 45 81
-46 108 -48 14 -52 17 -45 37 15 40 52 33 98 -17 38 -42 44 -44 72 -36 44 12
48 16 61 56 11 34 13 35 26 16 24 -35 92 -55 204 -60 151 -6 225 20 277 97 27
40 28 54 7 75 -28 28 -103 20 -178 -19 -67 -35 -106 -41 -156 -25 -24 8 -24 8
6 9 45 1 132 29 173 56 72 45 137 139 109 157 -28 17 -67 7 -109 -27 -61 -52
-116 -81 -184 -100 -118 -32 -132 -42 -96 -67 18 -13 16 -15 -25 -34 -46 -22
-54 -21 -54 6 0 9 -9 25 -20 35 -26 23 -25 29 4 43 14 6 40 41 63 84 l39 73
60 0 c32 0 61 5 64 10 9 18 -71 48 -141 53 -50 3 -81 0 -113 -12 -54 -21 -111
-81 -127 -134 l-11 -39 -67 -5 c-81 -6 -128 -29 -146 -71 -7 -18 -23 -40 -36
-50 -18 -16 -21 -26 -16 -67 5 -44 4 -48 -21 -60 -23 -10 -28 -9 -37 6 -23 41
-90 104 -129 124 -64 30 -172 24 -151 -9 3 -7 15 -9 25 -6 22 7 74 -35 96 -77
l15 -29 -32 17 c-20 10 -59 17 -101 18 -71 1 -75 4 -57 38 31 57 -110 80 -166
28 -34 -32 -73 -117 -87 -188 -6 -31 -12 -58 -14 -60 -1 -2 -13 4 -26 12 -19
12 -24 23 -20 45 2 17 -3 40 -13 55 -17 25 -16 27 15 66 18 23 34 57 37 79 4
32 0 43 -26 73 -17 19 -28 37 -26 40 9 8 -17 24 -65 39 -44 13 -43 14 100 20
150 6 166 9 213 42 34 23 87 113 87 147 0 37 -36 89 -73 106 -42 18 -106 74
-87 75 8 1 49 0 90 -1 64 -1 80 2 109 22 45 30 48 42 17 73 -20 20 -35 25 -77
25 l-52 0 6 55 c5 53 5 55 -18 55 -13 0 -45 -11 -72 -25 -34 -19 -55 -24 -78
-19 -42 9 -51 21 -24 29 30 10 41 26 27 42 -7 9 -6 24 6 53 23 57 21 96 -6
114 -30 21 -80 30 -123 22 -29 -6 -35 -11 -35 -32 0 -13 -6 -27 -14 -30 -12
-5 -86 32 -86 42 0 3 18 28 40 57 65 87 89 169 57 196 -55 45 -140 11 -248
-98 -42 -43 -89 -81 -103 -85 -17 -4 -23 -11 -20 -21 8 -20 -29 -20 -46 0 -12
15 -10 91 6 225 4 37 1 50 -19 74 -19 23 -32 29 -73 32 -27 2 -66 -1 -87 -6z
m73 -46 c0 -18 -24 -44 -40 -44 -25 0 -26 25 -2 39 19 11 42 14 42 5z m-16727
-97 c9 -23 17 -44 17 -47 0 -3 -27 -3 -60 -2 -33 2 -60 7 -60 10 0 8 72 82 80
82 3 0 13 -19 23 -43z m16367 -37 c0 -5 -4 -10 -10 -10 -5 0 -10 5 -10 10 0 6
5 10 10 10 6 0 10 -4 10 -10z m178 -85 c-14 -31 -16 -31 -69 0 l-44 25 62 0
63 0 -12 -25z m-16468 -9 c0 -7 -13 -19 -30 -26 -16 -7 -35 -18 -41 -26 -16
-19 -32 -18 -22 1 9 16 72 64 86 65 4 0 7 -6 7 -14z m-570 -5 c0 -19 -22 -23
-38 -7 -15 15 -14 16 11 16 15 0 27 -4 27 -9z m17800 -101 c23 -12 16 -40 -10
-40 -23 0 -34 16 -26 35 6 18 11 18 36 5z m-17224 -89 c-3 -5 -27 -14 -53 -20
-27 -7 -57 -15 -68 -18 -18 -5 -17 -2 5 20 19 19 36 25 73 26 27 1 46 -3 43
-8z m-1171 -60 c16 -17 47 -36 70 -43 22 -6 35 -13 28 -15 -7 -2 -34 5 -60 17
-26 12 -67 24 -90 27 l-42 6 15 28 c17 34 30 30 79 -20z m17092 -27 c-3 -3
-12 -4 -19 -1 -8 3 -5 6 6 6 11 1 17 -2 13 -5z m1478 -94 c-3 -5 -21 -10 -38
-9 -27 0 -29 2 -12 9 28 12 57 12 50 0z m-2023 -22 c-6 -6 -15 -8 -19 -4 -4 4
-1 11 7 16 19 12 27 3 12 -12z m-8 -113 c6 -16 -3 -19 -29 -9 -13 5 -14 8 -3
15 19 12 25 11 32 -6z m-16660 -71 c25 -9 19 -19 -18 -32 -19 -7 -54 -28 -79
-47 -44 -33 -77 -45 -77 -26 0 4 27 22 59 40 33 17 63 40 66 51 7 21 21 25 49
14z m116 -4 c0 -5 -4 -10 -10 -10 -5 0 -10 5 -10 10 0 6 5 10 10 10 6 0 10 -4
10 -10z m12210 -20 c14 -11 33 -20 43 -20 9 0 18 -8 19 -17 4 -43 3 -83 -2
-83 -16 1 -50 41 -50 59 0 22 -27 41 -59 41 -24 0 -27 10 -9 28 17 17 29 15
58 -8z m4175 -24 c38 -19 54 -31 43 -33 -20 -5 -89 28 -109 53 -8 9 -9 15 -4
13 6 -3 37 -18 70 -33z m7642 -13 c9 -21 19 -41 21 -45 5 -11 -90 -9 -108 2
-12 8 -9 15 20 45 18 19 37 35 42 35 4 0 15 -17 25 -37z m-11972 -3 c12 10 15
9 15 -4 0 -21 -18 -56 -28 -56 -8 0 -32 48 -32 63 0 5 7 4 15 -3 12 -10 18
-10 30 0z m4575 -34 c0 -7 -6 -19 -14 -25 -11 -9 -15 -8 -20 5 -4 10 -1 21 6
26 19 12 28 10 28 -6z m1995 -35 c-3 -6 -11 -11 -17 -11 -6 0 -6 6 2 15 14 17
26 13 15 -4z m-1778 -50 c36 -53 31 -69 -24 -76 -27 -4 -72 -11 -101 -17 -30
-5 -56 -7 -60 -4 -3 4 23 36 59 72 73 73 91 77 126 25z m7253 -10 c0 -11 -82
-63 -89 -56 -7 8 72 74 82 68 4 -2 7 -8 7 -12z m-561 -7 c1 -1 0 -7 -4 -13 -7
-13 -45 4 -45 20 0 9 37 4 49 -7z m-7209 -85 c1 -19 -36 -17 -57 2 -26 25 -29
39 -11 57 9 9 18 4 39 -21 16 -17 28 -35 29 -38z m7775 -99 c-3 -5 -25 -14
-48 -20 -23 -6 -51 -14 -62 -17 -18 -5 -18 -3 4 21 19 20 34 26 68 26 26 0 42
-4 38 -10z m-7384 -29 c24 -11 76 -22 114 -26 39 -4 92 -13 119 -21 27 -8 74
-14 104 -14 l55 0 -6 -37 c-9 -56 -20 -60 -68 -24 -50 36 -76 39 -113 10 l-26
-20 7 -120 c7 -132 6 -135 -54 -98 -25 15 -31 25 -24 32 17 17 13 51 -15 115
-28 66 -51 82 -116 82 -34 0 -39 2 -33 18 14 30 17 79 6 86 -5 4 -8 13 -4 21
6 18 2 19 54 -4z m6233 -30 c16 -17 45 -36 65 -42 20 -7 31 -14 24 -16 -6 -2
-30 5 -52 17 -23 11 -61 23 -86 26 l-44 7 15 28 c17 34 30 30 78 -20z m-6586
22 c-2 -14 -17 -20 -58 -24 -30 -4 -64 -10 -75 -15 -18 -7 -19 -6 -5 11 20 24
68 44 108 45 27 0 33 -4 30 -17z m-1194 -67 c-3 -9 -12 -16 -20 -16 -17 0 -17
2 -2 35 9 21 13 23 20 11 4 -8 5 -21 2 -30z m2036 -61 c0 -6 -7 -21 -16 -33
-14 -21 -18 -22 -33 -8 -12 11 -15 27 -13 61 l4 47 29 -28 c16 -15 29 -33 29
-39z m583 -5 c55 -3 91 -9 89 -15 -2 -5 14 -15 35 -22 21 -6 31 -12 22 -12 -8
-1 -24 -7 -34 -15 -17 -12 -18 -17 -7 -41 7 -15 11 -29 9 -31 -1 -2 -30 3 -63
11 -56 13 -66 12 -124 -5 -35 -11 -65 -18 -67 -16 -2 1 8 13 22 26 33 31 32
40 -5 40 -55 0 -160 -66 -160 -100 0 -25 44 -37 83 -22 17 7 37 8 46 3 9 -5
36 -11 61 -15 25 -4 70 -22 100 -41 72 -46 135 -49 151 -7 l11 27 9 -24 c18
-46 10 -52 -76 -55 -50 -2 -95 2 -119 10 -21 8 -48 14 -59 14 -11 0 -28 7 -38
16 -53 48 -156 15 -224 -73 -22 -28 -42 -52 -45 -52 -9 -1 -70 98 -70 114 0 8
15 25 34 37 23 15 45 45 67 90 34 70 78 111 144 133 18 6 36 23 45 41 l15 31
28 -21 c22 -16 48 -22 120 -26z m256 30 c21 -10 75 -58 119 -105 48 -51 92
-89 109 -94 22 -6 29 -15 34 -44 3 -20 12 -43 19 -52 18 -21 64 -45 88 -45 11
0 40 -9 66 -21 l47 -20 -3 -57 c-3 -62 -20 -73 -28 -20 -4 29 -13 37 -74 68
-54 27 -81 34 -128 35 -51 1 -62 4 -72 22 -6 12 -32 44 -58 71 -58 61 -71 91
-57 131 21 59 -45 120 -129 121 -26 1 -26 1 -8 15 25 19 29 19 75 -5z m-1526
-15 c-4 -15 -36 -12 -41 3 -3 9 3 13 19 10 13 -1 23 -7 22 -13z m-4543 -25 c0
-5 -5 -10 -11 -10 -5 0 -7 5 -4 10 3 6 8 10 11 10 2 0 4 -4 4 -10z m4418 -22
c88 -93 91 -99 94 -146 2 -38 8 -49 28 -59 14 -7 24 -18 22 -25 -2 -6 2 -14 9
-18 6 -4 8 -13 5 -19 -9 -14 -81 -51 -100 -51 -8 0 -28 24 -44 53 -18 32 -47
64 -73 82 l-44 29 35 6 c72 12 81 40 20 64 -22 9 -40 18 -40 21 0 15 46 85 56
85 6 0 20 -10 32 -22z m352 -29 c0 -5 14 -32 32 -60 l31 -51 -21 -17 c-23 -17
-19 -29 12 -47 27 -14 31 -33 10 -41 -11 -4 -22 0 -30 12 -13 18 -14 18 -14
-5 0 -15 -14 -35 -39 -57 -22 -18 -43 -42 -46 -52 -4 -15 -18 -20 -58 -23 -29
-2 -54 -3 -55 -2 -2 1 10 10 27 18 52 27 63 73 26 110 -12 12 -7 16 33 26 50
12 102 53 102 80 0 8 -11 31 -24 50 -28 42 -40 76 -31 91 7 11 45 -16 45 -32z
m-14956 -8 c7 -11 -22 -23 -35 -15 -5 3 -9 9 -9 15 0 12 37 12 44 0z m141 -11
c-3 -5 -10 -10 -16 -10 -5 0 -9 5 -9 10 0 6 7 10 16 10 8 0 12 -4 9 -10z
m17046 -33 c-13 -13 -41 -1 -41 17 0 13 4 14 25 4 16 -7 22 -15 16 -21z
m-1814 -30 c35 0 63 -3 63 -6 0 -3 -15 -18 -34 -33 -60 -48 -56 -135 19 -383
l34 -110 -41 -73 c-22 -40 -41 -72 -43 -70 -2 2 1 23 5 48 13 66 -3 106 -51
130 -48 25 -140 35 -197 22 -32 -8 -49 -7 -70 4 -37 18 -71 8 -78 -25 -10 -43
-86 -151 -106 -151 -10 0 -18 7 -18 15 0 22 -33 35 -92 36 -47 0 -50 2 -28 11
120 53 198 92 236 117 25 17 50 31 57 31 7 0 18 4 26 9 11 7 8 16 -14 45 -15
19 -37 38 -48 42 -20 6 -17 9 20 25 54 23 63 53 35 108 -20 39 -20 39 -1 57
16 14 23 15 45 6 56 -26 151 -5 174 39 8 14 10 40 6 71 -7 48 -6 49 15 43 13
-4 51 -8 86 -8z m5671 -69 c18 -18 15 -25 -16 -31 -16 -3 -52 -24 -81 -47 -35
-27 -58 -39 -69 -35 -15 5 -13 9 8 25 14 11 42 27 63 36 20 9 37 23 37 30 0 7
8 18 18 23 22 13 26 13 40 -1z m-10348 -162 c0 -55 -36 -21 -46 44 l-7 45 26
-31 c15 -18 27 -44 27 -58z m5208 4 c14 -19 58 -47 118 -76 l96 -47 -78 -20
c-115 -28 -117 -32 -61 -114 45 -66 46 -68 24 -75 -12 -3 -55 -6 -94 -7 -66
-1 -73 1 -73 19 0 32 -65 38 -112 11 -32 -18 -38 -19 -38 -6 0 8 16 23 35 32
21 10 35 24 35 35 0 13 8 18 30 18 56 0 140 46 140 76 0 23 -35 25 -92 5 -41
-14 -59 -16 -67 -8 -16 16 -14 23 15 67 21 32 32 40 53 38 24 -3 26 0 23 29
-6 59 13 68 46 23z m-927 -13 c-16 -16 -26 0 -10 19 9 11 15 12 17 4 2 -6 -1
-17 -7 -23z m1030 3 c19 -11 26 -30 10 -30 -5 0 -19 9 -32 20 -26 21 -11 27
22 10z m-2683 -46 c21 -6 13 -24 -10 -24 -13 0 -45 9 -73 20 l-50 19 60 -5
c33 -3 66 -7 73 -10z m822 -42 c0 -20 -27 -48 -73 -77 -33 -21 -47 -13 -24 13
9 10 18 29 20 42 6 35 77 55 77 22z m-3185 -52 c14 -27 22 -50 17 -50 -4 0
-24 11 -45 26 -33 22 -36 27 -22 40 8 9 15 20 15 25 0 19 11 7 35 -41z m5354
-6 c26 -33 26 -41 2 -54 -16 -8 -28 -2 -68 35 l-48 44 47 1 c39 0 50 -4 67
-26z m-5612 -39 c15 -13 23 -25 16 -25 -6 0 -15 5 -19 11 -3 6 -20 17 -38 25
-26 11 -27 13 -9 14 12 0 35 -11 50 -25z m-937 -10 c0 -8 9 -19 20 -25 11 -6
20 -14 20 -18 0 -12 -80 -53 -90 -47 -17 10 -11 51 11 79 23 29 39 34 39 11z
m-9355 -25 c39 -15 21 -30 -36 -30 -60 0 -57 17 8 39 1 1 14 -3 28 -9z m12528
0 c7 0 -1 -9 -18 -20 -37 -25 -45 -25 -45 -1 0 21 17 32 38 25 8 -2 19 -4 25
-4z m1397 -25 c-7 -8 -19 -15 -27 -15 -13 0 -13 3 -3 15 7 8 19 15 27 15 13 0
13 -3 3 -15z m6238 6 c10 -6 8 -10 -10 -14 -36 -10 -48 -8 -48 8 0 16 36 20
58 6z m-4134 -49 c-12 -18 -55 -23 -61 -7 -1 6 9 17 25 26 32 19 53 8 36 -19z
m4071 -42 c-9 -18 -13 -40 -9 -52 4 -15 2 -19 -7 -16 -22 7 -22 42 1 71 28 36
34 34 15 -3z m-5899 -39 c12 -42 12 -45 -18 -81 -16 -21 -38 -40 -49 -43 -27
-7 -24 -41 7 -68 73 -67 87 -89 59 -89 -29 0 -74 30 -92 61 -10 17 -33 40 -51
51 -33 20 -33 21 -13 35 12 8 21 19 21 26 0 6 -23 34 -51 63 l-50 51 63 6 c35
3 81 12 103 20 22 8 44 14 49 13 5 -1 15 -22 22 -45z m-3451 9 c14 -6 3 -9
-40 -9 -42 -1 -56 2 -45 9 18 12 58 12 85 0z m7276 -7 c44 -21 49 -29 42 -66
-5 -23 -8 -25 -20 -15 -8 7 -19 23 -24 35 -5 13 -16 26 -24 28 -8 3 -22 7 -31
10 -16 5 -10 25 8 25 6 0 29 -8 49 -17z m-2591 -8 c44 -23 39 -45 -10 -45 -52
0 -104 -22 -124 -52 -8 -12 -18 -46 -22 -74 l-6 -52 -42 5 c-22 3 -47 6 -53 9
-17 5 -16 33 2 68 8 15 13 31 10 35 -2 4 -1 21 4 37 7 28 10 29 79 35 52 4 80
11 100 27 33 26 27 25 62 7z m2454 -50 c-4 -8 -10 -15 -15 -15 -5 0 -9 7 -9
15 0 8 7 15 15 15 9 0 12 -6 9 -15z m4610 -11 c20 -8 20 -20 0 -28 -21 -8 -34
1 -27 19 6 17 6 17 27 9z m153 -20 c-3 -3 -12 -4 -19 -1 -8 3 -5 6 6 6 11 1
17 -2 13 -5z m-4969 -36 c-6 -18 -28 -21 -28 -4 0 9 7 16 16 16 9 0 14 -5 12
-12z m5753 -80 c11 -41 -2 -34 -34 16 -16 26 -25 50 -21 60 5 14 10 11 27 -16
11 -18 23 -45 28 -60z m-5992 -3 c7 -21 24 -41 41 -50 37 -19 124 -19 153 -1
20 13 25 13 45 -4 21 -17 21 -22 11 -72 -14 -72 -41 -158 -51 -164 -5 -3 -7
24 -6 59 4 89 -12 107 -96 107 -71 0 -101 -16 -111 -60 -7 -30 -21 -47 -32
-36 -4 4 -7 44 -7 90 -1 69 -5 88 -21 106 -19 22 -19 22 5 41 37 28 54 23 69
-16z m-6862 -7 c-3 -7 -5 -2 -5 12 0 14 2 19 5 13 2 -7 2 -19 0 -25z m4303 1
c0 -18 -2 -19 -15 -9 -15 12 -12 30 6 30 5 0 9 -10 9 -21z m8029 -63 l22 -23
-70 -5 c-40 -3 -81 -12 -95 -22 -14 -9 -37 -16 -52 -16 -22 0 -25 3 -20 23 3
12 6 28 6 35 0 8 20 12 68 12 37 0 74 5 82 10 23 15 35 12 59 -14z m-13469 -9
c0 -20 -39 -57 -60 -57 -28 0 -33 16 -14 45 18 27 74 36 74 12z m4189 -26 c42
-22 33 -27 -49 -27 -51 1 -65 4 -65 16 0 9 13 17 35 21 19 4 37 7 40 7 3 1 20
-7 39 -17z m344 2 c4 -2 5 -8 2 -13 -6 -9 -63 7 -80 22 -10 9 60 1 78 -9z
m825 -11 c14 -21 13 -22 -12 -22 -21 0 -26 5 -26 26 0 30 16 28 38 -4z m447
-18 c18 -12 25 -25 25 -49 0 -30 -3 -33 -37 -39 -65 -10 -63 -12 -63 65 l0 71
25 -16 c14 -9 36 -23 50 -32z m-15681 -13 c6 -41 64 -104 125 -135 29 -16 51
-43 51 -65 0 -6 -18 -11 -40 -11 -33 0 -47 -7 -76 -35 -47 -47 -78 -45 -85 5
-6 39 -74 40 -147 3 -30 -15 -57 -23 -59 -18 -15 44 -30 60 -58 60 -30 0 -30
-1 -29 -52 l2 -53 -35 0 c-31 0 -36 4 -54 46 -16 34 -19 58 -15 93 3 25 5 65
5 89 0 24 5 42 11 42 47 0 157 -24 167 -37 15 -19 103 -31 103 -14 0 7 18 36
40 66 52 70 84 75 94 16z m14510 30 c7 -11 -52 -26 -62 -16 -8 8 18 25 40 25
9 0 19 -4 22 -9z m-14679 -11 c-3 -5 -17 -10 -31 -10 -14 0 -22 4 -19 10 3 6
17 10 31 10 14 0 22 -4 19 -10z m15021 -73 c25 -30 30 -53 15 -76 -8 -12 -16
-13 -50 -2 -23 6 -41 15 -41 19 0 5 -19 27 -42 50 -40 41 -40 42 -16 42 14 0
31 7 38 15 11 13 16 13 42 -3 17 -9 41 -30 54 -45z m-788 28 c-9 -10 -98 -28
-104 -22 -11 11 0 17 52 30 41 10 67 6 52 -8z m578 10 c18 -14 18 -14 -4 -15
-13 0 -32 -5 -43 -11 -11 -5 -28 -9 -37 -7 -13 3 -8 10 18 26 42 26 41 26 66
7z m-8853 -85 c31 -23 57 -46 57 -50 0 -9 -85 -40 -111 -40 -19 0 -39 71 -39
138 0 37 1 37 18 16 9 -12 43 -40 75 -64z m9530 25 c14 -19 15 -26 5 -29 -7
-2 -33 -9 -57 -16 -51 -14 -91 -37 -91 -54 0 -13 -42 -61 -67 -75 -24 -13 -8
-39 41 -67 38 -22 38 -34 -1 -34 -14 0 -32 -4 -41 -9 -9 -4 -45 -11 -80 -14
-57 -5 -63 -3 -56 11 4 10 9 42 10 72 1 30 2 61 3 68 1 8 19 12 56 12 54 0 56
1 129 70 40 39 80 70 89 70 9 0 19 5 22 10 9 15 18 12 38 -15z m-773 -30 c0
-11 -11 -15 -40 -15 -51 0 -53 17 -2 23 20 2 38 4 40 5 1 1 2 -5 2 -13z m2187
-85 l-2 -37 -87 1 c-49 0 -88 3 -88 6 1 15 42 50 73 64 30 12 37 20 37 42 l0
28 35 -34 c28 -27 34 -40 32 -70z m-2337 76 c9 -12 4 -19 -30 -36 -23 -12 -44
-19 -46 -17 -5 5 48 66 57 67 4 0 12 -6 19 -14z m-3350 -38 c0 -18 -2 -20 -9
-8 -6 8 -7 18 -5 22 9 14 14 9 14 -14z m4650 -35 c0 -16 3 -39 7 -52 6 -23 6
-23 -21 -6 -28 18 -34 53 -14 73 19 19 28 14 28 -15z m2076 3 c12 -30 -14 -54
-63 -58 -48 -4 -71 8 -53 26 7 7 14 6 22 -2 17 -17 28 -15 28 6 0 36 54 59 66
28z m-17865 -76 c-7 -4 -24 -5 -39 -2 -27 5 -27 5 8 17 34 12 56 1 31 -15z
m15289 10 c20 -37 -9 -53 -46 -26 -19 15 -19 15 1 30 26 20 32 20 45 -4z m857
-6 c2 -6 -12 -33 -30 -60 -34 -49 -34 -49 -94 -52 -60 -3 -61 -2 -83 33 -29
48 -21 65 32 66 24 0 63 6 88 14 52 15 82 15 87 -1z m413 -3 c0 -2 -11 -13
-23 -25 -13 -12 -28 -29 -33 -37 -7 -12 -22 -14 -69 -9 l-60 6 37 16 c20 9 41
25 47 37 9 16 20 20 56 18 25 -1 45 -4 45 -6z m-3883 -23 c-3 -8 -6 -5 -6 6
-1 11 2 17 5 13 3 -3 4 -12 1 -19z m3570 -15 c29 -9 53 -20 53 -23 0 -4 -22
-10 -49 -13 -144 -17 -248 -122 -181 -182 24 -22 27 -87 5 -105 -21 -18 -91 3
-106 31 -12 23 2 69 27 90 8 6 14 20 14 30 0 10 30 44 66 76 36 32 72 70 80
86 17 32 21 32 91 10z m7803 -3 c-64 -23 -104 -26 -98 -7 3 6 27 15 54 18 90
11 100 9 44 -11z m-4200 -20 c0 -5 -4 -10 -10 -10 -5 0 -10 5 -10 10 0 6 5 10
10 10 6 0 10 -4 10 -10z m-1094 -34 c8 -8 14 -27 14 -42 0 -33 -13 -23 -28 24
-12 35 -8 40 14 18z m-1495 -74 c-39 -77 -43 -109 -16 -136 19 -19 152 -59
170 -52 8 3 30 -8 51 -25 l37 -29 -37 0 c-45 0 -86 -20 -118 -59 -23 -27 -30
-29 -111 -32 -70 -3 -89 -8 -109 -26 -20 -19 -31 -20 -95 -16 -65 5 -72 8 -76
29 -5 27 5 37 57 59 21 9 36 21 34 27 -6 18 -58 29 -108 23 -43 -5 -46 -3 -68
31 -27 43 -22 53 44 85 25 12 43 26 41 33 -7 21 -113 19 -163 -4 -26 -11 -48
-20 -50 -20 -16 0 7 27 75 88 l79 72 39 -39 c47 -47 103 -65 190 -59 71 4 103
26 103 68 0 33 7 40 37 40 l23 0 -29 -58z m-1223 36 c-9 -26 -54 -49 -81 -43
-40 10 -33 30 16 42 60 14 69 15 65 1z m-3454 -33 c3 -8 1 -15 -3 -15 -5 0
-11 7 -15 15 -3 8 -1 15 3 15 5 0 11 -7 15 -15z m-3070 -89 c-37 -42 -68 -76
-69 -76 -6 0 10 136 17 141 5 3 30 7 55 8 26 1 49 3 51 6 3 3 7 3 10 1 2 -3
-26 -39 -64 -80z m6421 64 c-28 -12 -47 -12 -40 0 3 6 18 10 33 9 24 0 25 -1
7 -9z m-467 -9 c8 -5 12 -21 10 -37 -2 -23 -8 -29 -28 -29 -22 0 -25 5 -28 38
-3 30 0 37 15 37 10 0 24 -4 31 -9z m8926 -7 c16 -6 23 -44 9 -44 -5 0 -21 9
-37 19 -25 17 -26 20 -10 24 11 3 20 5 21 6 1 0 8 -2 17 -5z m-8550 -19 c-21
-16 -115 -21 -98 -6 8 9 39 14 98 19 20 2 20 2 0 -13z m-3219 -43 c9 -20 13
-42 10 -50 -3 -8 12 -31 35 -54 22 -22 40 -43 40 -45 0 -3 -12 -19 -26 -37
-23 -27 -26 -28 -20 -8 14 42 -2 71 -59 108 -88 56 -106 117 -37 126 36 5 40
2 57 -40z m6370 8 c24 -46 15 -54 -26 -21 -20 16 -21 21 -10 35 18 21 18 21
36 -14z m-3698 -85 c27 -19 56 -40 65 -47 37 -28 26 -41 -32 -39 -30 1 -87 -2
-126 -7 l-71 -8 18 40 c16 36 72 95 91 96 4 0 29 -16 55 -35z m2382 -101 c68
-7 70 -8 49 -23 -13 -8 -50 -18 -83 -22 -33 -4 -68 -10 -79 -14 -16 -7 -17 -5
-10 16 4 13 8 32 8 42 0 13 6 17 21 13 12 -3 54 -9 94 -12z m181 6 c0 -5 -7
-7 -15 -4 -8 4 -15 8 -15 10 0 2 7 4 15 4 8 0 15 -4 15 -10z m1720 0 c0 -5 -5
-10 -11 -10 -5 0 -7 5 -4 10 3 6 8 10 11 10 2 0 4 -4 4 -10z m3655 -1 c4 -6 5
-13 2 -16 -8 -7 -47 7 -47 18 0 13 37 11 45 -2z m-4065 -9 c11 -7 2 -10 -33
-10 -30 0 -46 4 -42 10 8 13 55 13 75 0z m3948 -33 c52 -25 81 -31 130 -32 50
0 65 -4 73 -18 14 -25 1 -95 -19 -107 -14 -8 -13 -9 9 -10 29 0 45 14 50 44 5
24 27 33 35 13 7 -20 -34 -87 -60 -97 -12 -4 -65 -6 -118 -3 -92 3 -99 2 -153
-27 -59 -32 -75 -32 -75 1 0 44 -84 42 -158 -3 -18 -11 -34 -19 -36 -17 -2 2
-11 19 -20 37 -13 26 -23 32 -48 32 l-31 0 6 -55 6 -55 -35 0 c-29 0 -36 5
-54 40 -20 38 -28 129 -13 144 4 4 6 25 4 48 l-3 41 44 -7 c23 -4 62 -10 86
-13 24 -3 42 -11 42 -18 0 -28 97 -34 107 -7 4 9 23 39 42 65 35 48 37 48 79
42 23 -3 73 -20 110 -38z m-8096 -24 l60 -58 -43 -7 c-48 -8 -58 -2 -111 64
-32 41 -30 58 9 58 17 0 44 -18 85 -57z m178 42 c0 -9 17 -19 47 -27 l48 -12
-55 -12 c-54 -12 -56 -12 -83 14 -26 25 -27 28 -11 39 24 18 54 16 54 -2z
m1160 5 c0 -5 -4 -10 -10 -10 -5 0 -10 5 -10 10 0 6 5 10 10 10 6 0 10 -4 10
-10z m6485 0 c-3 -5 -15 -10 -26 -10 -11 0 -17 5 -14 10 3 6 15 10 26 10 11 0
17 -4 14 -10z m-10286 -95 c-1 -5 -15 -14 -30 -20 -15 -5 -44 -25 -65 -44 -32
-29 -36 -36 -25 -52 14 -24 -1 -32 -41 -21 -42 11 -38 24 19 57 28 17 56 40
62 53 15 33 86 57 80 27z m-1079 -61 c0 -46 -46 -17 -56 35 l-7 35 31 -23 c21
-15 32 -31 32 -47z m3416 47 l36 -20 -42 -21 c-47 -24 -54 -20 -63 28 -6 27
-4 32 13 32 11 0 36 -9 56 -19z m3044 -66 c-7 -8 -21 -15 -32 -15 -17 0 -18 3
-8 15 7 8 21 15 32 15 17 0 18 -3 8 -15z m-890 -20 c0 -16 -6 -25 -15 -25 -18
0 -18 5 -5 31 14 26 20 24 20 -6z m1020 -44 c0 -16 -14 -20 -27 -10 -19 17
-16 28 7 22 11 -3 20 -9 20 -12z m-5630 -28 c0 -10 -7 -12 -22 -8 -36 11 -39
20 -7 21 19 1 29 -4 29 -13z m10500 7 c0 -14 -24 -22 -52 -18 l-23 5 25 11
c32 14 50 15 50 2z m-7930 -20 c0 -5 -2 -10 -4 -10 -3 0 -8 5 -11 10 -3 6 -1
10 4 10 6 0 11 -4 11 -10z m-5535 -21 c-7 -18 -55 -53 -62 -45 -3 3 9 19 26
37 32 31 47 35 36 8z m-2869 -60 c9 -16 -15 -29 -53 -29 -40 0 -43 12 -5 27
37 15 50 15 58 2z m10284 -71 c0 -25 -3 -29 -10 -18 -13 20 -13 50 0 50 6 0
10 -15 10 -32z m2157 10 c-3 -8 -6 -5 -6 6 -1 11 2 17 5 13 3 -3 4 -12 1 -19z
m-3733 -86 c-23 -75 -27 -99 -15 -106 13 -8 15 -99 3 -94 -5 2 -61 35 -125 73
-115 69 -117 71 -117 107 0 31 5 40 34 58 19 11 36 26 39 33 2 6 30 14 63 17
50 5 64 2 96 -18 l37 -24 -15 -46z m1150 66 c-12 -22 -47 -58 -56 -58 -19 0
-5 27 25 47 38 26 40 27 31 11z m-4023 -15 c37 -17 38 -20 39 -65 0 -47 -1
-48 -30 -48 -16 0 -37 -9 -47 -19 -25 -26 -113 -34 -113 -10 0 11 12 19 38 23
62 11 102 27 102 40 0 7 -14 31 -31 54 -26 35 -28 42 -13 42 10 0 35 -8 55
-17z m4157 -4 c7 -12 12 -22 10 -24 -2 -1 -25 -5 -53 -9 l-50 -6 35 30 c41 36
42 36 58 9z m-7158 -8 c0 -5 3 -16 6 -25 4 -10 1 -16 -9 -16 -20 0 -29 14 -21
34 7 17 24 22 24 7z m15287 -63 c-3 -8 -6 -5 -6 6 -1 11 2 17 5 13 3 -3 4 -12
1 -19z m-18158 -85 c-30 -25 -31 -34 -14 -77 8 -17 6 -17 -24 -2 -17 9 -31 22
-31 29 0 22 68 87 84 81 12 -5 9 -11 -15 -31z m9861 25 c0 -18 -75 -152 -93
-167 -19 -15 -72 6 -58 23 5 6 12 22 16 35 4 13 28 45 54 71 45 46 81 63 81
38z m-1399 -105 c35 -25 95 -77 133 -115 l70 -68 -21 -22 c-11 -13 -23 -42
-27 -65 -5 -35 -3 -44 13 -53 29 -15 55 -12 83 10 32 24 38 18 38 -37 l0 -44
-32 17 c-62 33 -218 17 -218 -22 0 -8 6 -15 13 -15 32 -4 137 -11 180 -12 46
-2 48 -3 42 -27 -4 -14 -17 -49 -30 -78 -19 -42 -29 -52 -42 -48 -47 14 -154
30 -203 30 -54 0 -347 -60 -363 -74 -13 -12 22 -40 51 -40 14 0 64 12 111 28
78 24 98 27 217 25 72 -1 143 -7 158 -13 l26 -10 -6 -167 c-4 -99 -2 -233 5
-326 9 -123 9 -220 -1 -440 -19 -403 -14 -785 12 -987 11 -88 23 -168 27 -177
3 -10 42 -55 85 -100 78 -82 78 -83 78 -137 0 -30 3 -63 7 -73 4 -11 -9 -4
-35 19 -47 42 -102 60 -169 56 -54 -4 -57 -8 -71 -102 -6 -38 -16 -72 -22 -76
-36 -22 -90 40 -90 104 0 20 9 53 19 74 10 20 26 61 35 91 15 50 15 56 0 73
-10 10 -38 20 -64 24 l-47 6 0 62 c0 38 -6 73 -16 93 -40 76 -118 96 -178 46
-57 -49 -73 -121 -44 -203 18 -50 19 -96 4 -105 -16 -10 -18 -5 -35 96 -13 81
-19 97 -44 119 -31 28 -179 80 -224 80 -60 0 -146 -62 -146 -106 0 -14 12 -41
26 -60 24 -31 26 -40 21 -100 -5 -73 -24 -102 -87 -134 -63 -32 -109 -41 -144
-26 -40 17 -115 99 -156 172 -40 72 -92 98 -195 99 -56 0 -81 -5 -126 -27 -31
-16 -59 -28 -62 -28 -4 0 -7 22 -7 49 0 42 6 57 44 108 49 64 120 132 185 175
22 15 41 34 41 42 0 7 -17 22 -37 32 -54 27 -252 27 -301 1 l-33 -18 7 28 c20
80 19 78 54 78 37 0 34 -5 62 95 13 45 13 45 60 45 50 1 78 17 78 46 0 24 2
24 46 -6 43 -29 113 -34 138 -10 17 17 42 20 51 5 3 -5 33 -10 66 -10 73 0 82
14 49 75 -13 24 -20 47 -15 55 12 20 92 4 127 -25 36 -30 42 -27 103 44 41 48
45 57 45 107 0 52 1 54 28 54 58 0 78 42 85 177 l5 103 -39 11 c-33 10 -46 9
-95 -10 -31 -11 -60 -21 -65 -21 -5 0 -9 17 -9 38 0 49 -38 123 -70 138 -14 7
-37 18 -52 25 -24 11 -28 18 -28 55 0 59 -23 74 -115 74 -83 0 -120 18 -109
53 12 40 35 57 77 57 55 0 113 19 144 47 22 21 25 30 20 65 -3 22 -19 69 -36
103 -17 34 -31 65 -31 69 0 3 19 6 43 6 23 0 58 8 77 18 30 15 39 27 61 92
l26 75 50 5 c28 3 58 11 67 19 15 12 14 16 -5 47 -14 24 -19 43 -14 63 5 25
12 30 51 36 105 15 171 63 161 115 -4 16 -2 30 3 30 5 0 14 9 20 21 15 26 -10
56 -49 61 -20 2 -27 9 -29 32 -2 18 -11 30 -23 33 -16 5 -13 12 27 56 38 42
45 56 40 79 -4 18 -1 28 7 28 109 2 255 22 313 43 38 14 72 25 75 26 4 1 35
-20 70 -46z m994 30 c-27 -64 15 -97 122 -99 l76 -2 34 -40 c37 -44 37 -43
-37 -57 -19 -3 -44 -10 -55 -15 -11 -5 -64 -21 -118 -36 -55 -15 -153 -54
-225 -90 -70 -34 -128 -62 -129 -61 -5 6 -26 140 -30 197 -4 60 -3 63 11 46
26 -33 69 -56 105 -56 32 0 33 1 27 31 -11 54 2 79 39 79 18 0 39 -7 46 -17
19 -22 72 -43 109 -43 34 0 38 7 13 25 -29 22 -26 155 4 155 11 0 13 -5 8 -17z
m3461 3 c10 -8 16 -18 11 -22 -8 -8 -57 15 -57 28 0 13 24 9 46 -6z m5348 -11
c-4 -8 -10 -15 -15 -15 -4 0 -6 7 -3 15 4 8 10 15 15 15 4 0 6 -7 3 -15z
m-12644 -6 c0 -8 12 -10 35 -6 43 7 50 -17 8 -28 -38 -9 -53 -23 -53 -49 0
-18 -2 -17 -15 8 -16 30 -20 68 -8 79 10 11 33 8 33 -4z m7385 1 c3 -5 -1 -10
-9 -10 -9 0 -16 5 -16 10 0 6 4 10 9 10 6 0 13 -4 16 -10z m-133 -25 c32 -22
36 -30 40 -75 3 -43 0 -50 -15 -50 -10 0 -43 23 -73 52 l-55 52 28 22 c15 13
30 23 33 24 3 0 22 -11 42 -25z m-3742 -10 c10 -12 7 -19 -17 -39 l-28 -25 -3
25 c-3 24 12 54 28 54 4 0 13 -7 20 -15z m3972 -33 c-17 -5 -59 16 -66 34 -4
10 8 7 37 -8 24 -12 36 -23 29 -26z m-21272 -33 c26 -14 38 -25 32 -31 -6 -6
-17 -6 -30 1 -11 6 -34 11 -51 11 -35 0 -39 7 -13 26 21 17 15 18 62 -7z
m4098 -4 c2 -2 6 -27 9 -57 4 -42 1 -65 -15 -101 -18 -41 -25 -47 -51 -47 -22
0 -35 -7 -47 -25 -9 -14 -24 -25 -33 -25 -9 0 -31 -9 -48 -20 l-33 -20 0 26
c0 14 9 37 20 51 24 31 26 59 4 67 -24 9 -63 7 -85 -4 -40 -22 -18 13 56 89
l74 77 73 -4 c40 -2 74 -6 76 -7z m17131 -19 c40 -21 54 -42 60 -89 6 -39 9
-43 44 -51 23 -6 37 -15 37 -25 0 -9 3 -26 6 -38 5 -18 1 -25 -18 -32 -13 -5
-30 -16 -37 -25 -7 -9 -26 -16 -41 -16 -43 0 -61 -28 -54 -83 4 -26 4 -47 1
-47 -3 0 -15 16 -27 35 -27 44 -66 65 -122 65 -24 0 -54 7 -66 15 -20 15 -21
18 -6 40 15 22 14 25 -20 63 l-36 39 134 -5 c73 -2 145 -2 160 2 36 9 33 32
-6 45 -17 6 -54 26 -81 43 l-50 32 30 8 c17 4 36 15 43 23 15 18 15 18 49 1z
m-7449 -16 c0 -11 -4 -20 -9 -20 -5 0 -7 9 -4 20 3 11 7 20 9 20 2 0 4 -9 4
-20z m-3005 -10 c-3 -5 -11 -10 -16 -10 -6 0 -7 5 -4 10 3 6 11 10 16 10 6 0
7 -4 4 -10z m2683 -45 c41 -7 43 -9 37 -33 -4 -15 -8 -29 -10 -31 -2 -2 -36
-3 -74 -3 -78 1 -117 16 -151 59 l-22 28 26 3 c14 2 26 9 26 16 0 10 16 8 63
-9 34 -12 81 -26 105 -30z m-13522 19 c-3 -9 -6 -20 -6 -25 0 -10 -60 -39 -80
-39 -12 0 3 34 28 63 20 22 67 24 58 1z m380 -15 c6 -13 15 -44 18 -69 l7 -45
-31 33 c-23 26 -30 43 -30 73 0 45 17 49 36 8z m18624 -5 c0 -14 -6 -24 -14
-24 -22 0 -28 17 -14 39 15 24 28 18 28 -15z m-170 21 c0 -2 -16 -12 -36 -21
-20 -9 -41 -28 -47 -41 -16 -35 -71 -63 -124 -63 -28 0 -53 -6 -64 -16 -16
-14 -19 -13 -40 15 -13 17 -29 31 -36 31 -8 0 -36 11 -63 25 -55 28 -78 52
-39 42 13 -4 48 -10 77 -13 29 -4 55 -11 58 -15 9 -16 88 -9 133 11 24 11 53
20 65 20 11 1 35 7 51 15 30 13 65 19 65 10z m-10388 -100 c3 -40 3 -40 -34
-43 l-38 -3 0 47 c0 36 6 54 22 72 l23 24 11 -29 c7 -15 14 -46 16 -68z m7688
13 c0 -14 -10 -17 -70 -16 -51 1 -74 6 -85 18 -14 15 -8 16 70 16 73 -1 85 -3
85 -18z m-2410 -20 c0 -34 -19 -58 -47 -58 -21 0 -24 3 -19 23 3 12 6 31 6 43
0 17 5 20 30 16 22 -3 30 -10 30 -24z m110 12 c0 -5 -5 -10 -11 -10 -5 0 -7 5
-4 10 3 6 8 10 11 10 2 0 4 -4 4 -10z m4342 -24 c104 -31 188 -68 168 -74 -34
-11 -41 -24 -24 -43 35 -39 191 -65 201 -34 1 6 -14 20 -35 32 l-37 23 54 -7
c37 -4 68 -16 97 -36 41 -29 132 -57 188 -57 28 0 28 -1 22 -39 -3 -22 -2 -42
2 -45 5 -3 9 -30 10 -61 1 -50 -1 -57 -23 -67 -13 -6 -22 -15 -19 -19 4 -8
-12 -14 -59 -21 -27 -4 -21 -22 11 -31 33 -9 107 0 142 18 14 7 35 31 48 53
19 35 27 40 70 46 26 3 65 15 86 25 33 17 41 18 69 6 26 -11 29 -15 15 -20
-22 -9 -23 -31 -3 -39 19 -7 19 -25 -1 -47 -12 -14 -26 -16 -67 -12 -71 7
-116 -11 -212 -84 -107 -81 -123 -99 -107 -123 7 -11 12 -24 12 -29 0 -9 -142
-106 -197 -135 -18 -9 -42 -16 -53 -16 -24 0 -99 -41 -123 -68 -9 -10 -18 -33
-19 -52 l-3 -35 80 -1 c44 0 97 -4 118 -8 56 -12 113 7 132 44 9 17 22 30 30
30 8 0 34 21 59 47 l44 48 46 -23 c74 -36 138 -26 173 27 l17 26 11 -29 c14
-33 4 -93 -23 -138 -14 -23 -23 -28 -57 -28 -75 0 -104 -44 -71 -108 8 -15 26
-34 40 -42 32 -16 32 -22 5 -46 -17 -14 -23 -16 -26 -6 -7 18 -44 53 -68 62
-28 10 -69 -3 -73 -24 -2 -10 6 -29 19 -42 29 -31 20 -40 -20 -20 -34 18 -116
21 -156 6 -43 -16 -43 -39 1 -76 68 -57 182 -58 203 -1 8 20 21 25 83 36 131
21 138 22 138 13 0 -20 -60 -63 -111 -81 -86 -29 -113 -46 -165 -104 -27 -29
-71 -66 -99 -82 -84 -47 -127 -96 -93 -107 10 -4 10 -10 1 -31 -9 -18 -39 -39
-104 -72 -51 -25 -98 -45 -104 -45 -7 0 -23 -9 -37 -19 -23 -19 -112 -45 -189
-56 -51 -7 -77 -29 -63 -51 15 -26 59 -35 139 -29 39 2 112 7 163 10 l92 6 0
-25 c0 -13 -16 -43 -35 -66 -41 -50 -44 -67 -10 -76 14 -3 25 -9 25 -13 0 -11
-184 -101 -228 -113 -20 -6 -71 -14 -112 -18 -111 -12 -150 -32 -150 -76 0
-74 303 -120 508 -78 97 20 152 44 219 96 80 61 84 38 11 -63 l-62 -85 -130 0
c-117 0 -140 -4 -211 -28 -153 -53 -275 -135 -388 -264 -69 -79 -72 -105 -15
-137 l37 -21 -54 -42 c-45 -35 -61 -42 -98 -42 -43 0 -46 2 -52 33 -9 39 -21
55 -60 78 -23 15 -30 26 -31 54 0 22 -9 45 -22 58 l-22 21 43 21 c31 15 44 28
51 52 6 18 20 36 34 43 22 9 29 7 53 -16 19 -18 42 -28 73 -31 141 -16 142 89
2 153 -72 33 -223 44 -278 21 -34 -14 -41 -14 -78 1 -56 24 -50 38 19 45 79 7
212 52 245 82 53 49 22 77 -88 78 -94 0 -149 -17 -196 -60 -28 -25 -41 -31
-44 -22 -3 8 -28 95 -55 194 -28 99 -57 191 -65 205 -17 31 -27 277 -26 660 0
151 -5 392 -10 535 l-10 259 24 26 c23 24 23 29 15 92 -16 112 10 142 187 221
255 115 422 169 536 176 10 1 55 -10 100 -23z m923 -26 c1 -39 0 -40 -35 -40
-44 0 -63 12 -58 35 3 16 52 42 83 44 6 1 10 -17 10 -39z m1883 8 c14 -19 25
-58 15 -58 -17 0 -32 16 -38 43 -8 28 5 36 23 15z m-2250 -15 c2 -8 -5 -13
-17 -13 -12 0 -21 6 -21 16 0 18 31 15 38 -3z m2995 -59 c46 -75 55 -108 41
-162 -6 -21 -10 -22 -63 -16 -47 5 -59 3 -71 -11 -12 -15 -12 -21 1 -43 17
-31 48 -41 61 -19 5 9 16 13 28 10 30 -8 35 -23 11 -39 -12 -8 -21 -24 -21
-35 0 -16 -5 -19 -20 -15 -11 3 -29 9 -41 12 -48 14 -110 -6 -158 -51 l-46
-43 -55 21 -55 20 45 20 c25 10 69 22 97 26 29 4 56 11 60 15 14 14 -22 26
-77 26 -58 0 -115 23 -134 53 -15 23 0 35 57 46 59 11 68 18 42 37 -20 15 -20
15 0 30 14 11 33 14 62 10 54 -7 203 38 203 61 0 20 -20 56 -36 66 -15 8 -19
39 -7 50 15 16 31 2 76 -69z m-10837 -78 c-4 -17 -17 -55 -31 -83 l-24 -53
-53 0 c-68 0 -98 -19 -98 -63 0 -40 30 -90 67 -113 15 -10 30 -20 33 -21 5 -5
-52 -52 -62 -53 -5 0 -8 8 -8 19 0 43 -93 85 -144 65 -25 -9 -19 -52 11 -80
34 -32 22 -42 -24 -20 -20 9 -58 20 -85 23 -26 3 -48 8 -48 10 0 2 7 18 16 36
27 51 23 128 -8 173 l-27 37 20 39 c11 22 27 38 37 38 10 0 40 23 67 50 54 55
75 60 120 30 34 -23 117 -27 152 -7 12 7 32 25 44 41 l23 29 14 -33 c7 -19 11
-47 8 -64z m7930 26 c-8 -7 -74 19 -87 34 -10 13 -10 17 1 24 9 5 26 -2 52
-23 21 -16 36 -32 34 -35z m-4962 43 c-4 -8 -10 -15 -15 -15 -4 0 -6 7 -3 15
4 8 10 15 15 15 4 0 6 -7 3 -15z m7784 -18 c4 -19 -40 -40 -72 -34 -19 3 -18
5 7 15 15 6 30 19 33 27 8 20 28 14 32 -8z m-7903 -77 c4 -6 -7 -10 -27 -9
-27 0 -30 2 -13 9 27 12 33 12 40 0z m2219 4 c12 -5 13 -9 3 -25 -15 -24 -37
-25 -37 -1 0 28 9 36 34 26z m3126 -38 c0 -12 -68 -54 -95 -59 -26 -6 -27 -5
-8 4 12 6 23 19 26 29 3 11 17 20 33 23 16 2 32 5 37 6 4 0 7 -1 7 -3z m-5015
-16 c3 -5 15 -10 26 -10 27 0 24 -13 -11 -38 -38 -28 -51 -28 -80 3 -26 28
-26 28 15 43 39 14 43 14 50 2z m-3835 -50 c13 -9 9 -16 -20 -41 -40 -34 -73
-35 -78 -1 -3 17 4 26 30 37 40 17 48 18 68 5z m14565 -19 c3 -5 1 -12 -5 -16
-5 -3 -10 1 -10 9 0 18 6 21 15 7z m-5506 -30 c-3 -6 -10 -7 -18 -2 -7 5 -10
14 -6 21 9 14 29 -2 24 -19z m5416 19 c3 -5 -3 -10 -15 -10 -12 0 -18 5 -15
10 3 6 10 10 15 10 5 0 12 -4 15 -10z m-10485 -17 c0 -10 -3 -28 -6 -41 -6
-20 -12 -23 -53 -20 -37 2 -46 7 -46 21 0 13 13 23 38 32 21 7 41 16 44 19 12
12 23 6 23 -11z m-150 -19 c0 -8 -7 -14 -15 -14 -8 0 -15 9 -15 20 0 13 5 18
15 14 8 -4 15 -12 15 -20z m-13300 -29 c0 -8 -6 -15 -14 -15 -7 0 -19 7 -26
15 -11 13 -8 15 14 15 16 0 26 -5 26 -15z m23950 -5 c0 -5 -5 -10 -11 -10 -5
0 -7 5 -4 10 3 6 8 10 11 10 2 0 4 -4 4 -10z m-20546 -56 l6 -52 -42 -4 c-24
-3 -44 -4 -46 -3 -2 2 14 27 35 58 21 30 39 54 39 53 1 0 4 -24 8 -52z m11546
-12 c0 -45 -14 -62 -51 -62 -27 0 -28 1 -17 33 10 31 41 67 59 67 5 0 9 -17 9
-38z m-1180 16 c0 -7 -11 -48 -25 -91 -14 -43 -25 -89 -25 -103 0 -25 -4 -28
-50 -38 -22 -5 -25 -10 -26 -52 -1 -41 1 -45 12 -30 13 19 34 14 34 -7 -1 -16
-48 -49 -60 -42 -6 3 -10 12 -10 20 0 8 -9 22 -19 32 -17 16 -19 24 -10 63 12
54 32 78 68 82 19 2 27 9 29 28 2 14 8 29 13 35 5 5 9 23 9 40 0 17 7 41 16
53 16 24 44 30 44 10z m-13905 -27 c-3 -16 0 -54 8 -84 l15 -56 -27 10 c-14 6
-40 19 -58 30 l-32 20 21 44 c19 38 45 62 71 64 5 1 6 -12 2 -28z m14953 4 c8
-8 -10 -25 -28 -25 -10 0 -32 -14 -49 -31 -19 -18 -38 -29 -46 -25 -17 6 -20
51 -5 61 6 3 10 14 10 24 0 16 6 17 57 9 32 -5 59 -11 61 -13z m-7438 -37 l0
-33 -90 0 c-118 -1 -118 17 2 49 81 22 88 21 88 -16z m2796 12 c12 0 12 -4 4
-20 -11 -21 -54 -27 -65 -10 -9 15 15 42 32 35 8 -3 21 -5 29 -5z m12066 -31
c29 -15 37 -24 30 -31 -8 -8 -15 -8 -24 0 -7 5 -31 14 -52 18 -36 6 -38 8 -21
20 23 17 18 18 67 -7z m-9277 -23 c166 -40 310 -46 407 -16 45 14 64 16 67 8
9 -25 51 -58 76 -58 24 0 34 -13 16 -24 -4 -3 -11 -23 -15 -45 -3 -22 -11 -43
-17 -47 -6 -3 -55 -6 -108 -6 -53 0 -104 -4 -113 -9 -19 -10 -25 -39 -8 -39
17 0 11 -24 -15 -63 -22 -31 -31 -37 -63 -37 -20 0 -43 -4 -51 -9 -23 -15 -5
-39 34 -47 42 -8 45 -11 38 -47 l-6 -28 -71 6 c-84 8 -136 22 -137 38 -1 7 0
24 1 39 2 32 -16 42 -137 82 -85 28 -111 49 -156 125 -22 37 -9 41 21 6 13
-14 33 -25 47 -25 24 0 25 2 19 35 -8 42 0 44 66 10 65 -33 175 -50 229 -35
71 19 52 47 -47 70 -32 7 -69 26 -95 47 -23 19 -50 41 -59 49 -10 7 -18 21
-18 30 0 10 6 14 18 10 9 -3 44 -12 77 -20z m1813 8 c-4 -20 -34 -41 -44 -31
-8 8 24 47 38 47 5 0 8 -7 6 -16z m6515 -36 c20 -24 49 -56 64 -72 15 -15 30
-34 33 -42 5 -14 151 -129 172 -136 8 -3 7 -11 -4 -27 -20 -29 -14 -47 23 -66
42 -22 78 -19 105 10 13 14 27 25 31 25 14 0 31 -68 19 -80 -5 -5 -47 -10 -91
-10 -186 0 -355 -86 -315 -160 14 -26 15 -25 -32 -40 -169 -50 -213 -145 -117
-254 17 -20 30 -38 28 -39 -4 -3 -100 5 -227 19 -58 6 -89 -7 -118 -51 -14
-21 -14 -30 -4 -55 7 -17 20 -35 29 -39 33 -19 0 -23 -46 -6 -75 28 -91 40
-86 69 6 29 -13 40 -120 76 -67 22 -93 44 -127 110 -13 24 -13 24 20 -3 40
-34 56 -30 52 12 -1 17 0 31 3 31 3 0 28 -12 55 -26 61 -32 184 -44 214 -21
27 20 13 34 -50 48 -30 7 -65 22 -79 33 -13 12 -35 31 -49 43 -28 24 -35 49
-11 39 44 -16 226 -46 284 -46 70 0 214 36 258 65 54 36 8 70 -119 86 -106 14
-137 26 -144 56 -4 13 -14 28 -24 33 -10 5 -26 31 -36 56 -14 37 -15 50 -6 65
11 16 7 28 -23 74 -19 31 -35 60 -35 65 0 5 12 10 28 12 20 2 27 9 27 25 1 34
11 37 47 12 58 -42 221 -27 281 26 32 29 34 53 7 88 -27 34 -26 37 14 37 27 0
40 -8 69 -42z m-21703 -42 c-15 -42 -30 -28 -30 26 l0 53 19 -30 c11 -19 15
-37 11 -49z m10510 20 c0 -26 -74 -76 -142 -97 -76 -24 -148 -67 -181 -111
-38 -51 -59 -68 -151 -124 l-89 -54 6 36 c4 24 25 58 62 101 31 36 66 83 78
103 19 34 26 38 69 42 51 5 88 30 88 58 0 14 18 21 93 34 50 9 106 18 122 20
17 1 33 4 38 5 4 0 7 -5 7 -13z m12076 -2 c-3 -9 -6 -20 -6 -25 0 -10 -71 -42
-77 -35 -8 7 7 45 23 61 21 21 68 20 60 -1z m374 -4 c6 -10 13 -41 16 -67 l7
-48 -32 29 c-30 29 -38 57 -25 90 8 22 21 20 34 -4z m-23183 -117 c-3 -71 -10
-382 -16 -693 -6 -311 -15 -628 -21 -705 -6 -77 -10 -173 -10 -213 0 -80 -16
-94 -36 -32 -14 41 -48 78 -77 82 -20 3 -24 15 -44 118 -12 63 -27 135 -34
160 -59 240 -109 473 -109 507 0 23 -7 74 -15 113 -17 79 -20 122 -31 373 -7
165 -7 168 16 192 l22 24 -21 34 c-11 19 -21 39 -21 44 0 5 26 7 59 5 42 -3
69 0 92 12 20 10 44 14 61 11 31 -7 68 2 68 16 0 5 -8 9 -18 9 -10 0 -26 6
-37 14 -16 11 -10 14 50 18 42 4 73 12 83 22 38 38 43 23 39 -111z m24330 111
c-3 -3 -12 -4 -19 -1 -8 3 -5 6 6 6 11 1 17 -2 13 -5z m-20509 -26 c-2 -19
-10 -23 -45 -25 -24 -2 -43 -1 -43 1 0 8 65 46 78 46 8 0 12 -9 10 -22z
m17309 -77 c-20 -8 -81 12 -103 34 -26 26 -32 47 -10 39 7 -3 16 3 20 12 6 15
15 10 54 -32 26 -27 44 -51 39 -53z m-12912 63 c28 -18 34 -54 9 -54 -15 0
-104 56 -104 65 0 12 73 3 95 -11z m16375 -4 c0 -11 -6 -20 -13 -20 -19 0 -27
10 -20 26 8 21 33 17 33 -6z m-3327 -16 c37 -4 70 -11 74 -17 4 -7 -7 -8 -33
-4 -21 4 -62 7 -90 7 -30 0 -58 6 -70 16 -18 14 -17 15 16 9 19 -3 65 -8 103
-11z m-17572 -33 c-6 -11 -14 -47 -18 -81 -6 -58 -7 -60 -34 -60 -26 0 -29 3
-28 33 3 64 14 91 48 114 38 26 48 24 32 -6z m20354 9 c-27 -12 -35 -12 -35 0
0 6 12 10 28 9 24 0 25 -1 7 -9z m310 -38 c-6 -36 -3 -43 39 -89 41 -46 44
-51 26 -56 -12 -3 -20 -14 -20 -27 0 -41 -18 -60 -59 -60 l-38 0 -6 63 c-3 34
-9 72 -13 84 -5 18 -1 25 20 33 31 11 33 21 6 45 -31 28 -25 45 16 45 l36 0
-7 -38z m-11265 13 c10 -12 10 -15 -4 -15 -9 0 -16 7 -16 15 0 8 2 15 4 15 2
0 9 -7 16 -15z m8240 5 c22 0 30 -6 39 -31 14 -40 8 -49 -32 -49 -30 1 -87 38
-87 58 0 15 24 33 38 27 8 -3 26 -5 42 -5z m-20972 -16 c13 -9 21 -22 18 -30
-7 -17 26 -27 63 -19 45 10 98 -4 104 -26 3 -11 14 -19 25 -19 12 0 22 -9 25
-21 5 -17 -1 -23 -31 -35 -119 -46 -137 -73 -78 -121 25 -19 34 -33 30 -46 -8
-24 11 -44 48 -52 23 -5 27 -10 18 -19 -7 -7 -61 -11 -158 -11 -183 0 -197 -6
-187 -73 14 -104 34 -152 84 -202 69 -68 142 -91 320 -96 74 -2 136 -5 138 -8
10 -10 -21 -90 -67 -173 -27 -49 -52 -103 -55 -119 -8 -40 25 -90 72 -111 21
-10 40 -18 42 -20 2 -1 -10 -14 -27 -27 -16 -14 -37 -41 -46 -60 -21 -44 -10
-74 39 -112 l36 -27 -28 -29 c-15 -16 -52 -48 -81 -70 l-53 -41 -31 23 c-54
40 -168 37 -168 -4 0 -23 101 -107 160 -134 43 -20 72 -26 130 -26 41 -1 86 2
100 6 21 6 28 2 42 -22 27 -47 70 -63 158 -58 l77 5 11 -43 c7 -24 24 -58 40
-75 23 -26 38 -33 80 -37 87 -8 116 3 184 70 l63 62 9 -33 c13 -45 -6 -152
-34 -190 -14 -20 -36 -34 -63 -42 -68 -18 -87 -28 -87 -44 0 -26 67 -47 148
-47 62 0 83 5 139 32 38 19 94 60 135 99 l71 66 16 -25 c55 -85 125 -109 206
-70 26 13 49 29 52 37 3 7 20 20 39 28 26 11 35 22 44 57 17 61 70 198 89 228
15 24 16 22 24 -65 4 -50 8 -204 10 -342 l3 -253 -23 0 c-39 0 -102 -31 -124
-61 -17 -24 -24 -27 -39 -19 -28 15 -92 12 -116 -5 -12 -8 -27 -29 -34 -47 -8
-18 -14 -34 -15 -36 -1 -1 -22 7 -46 18 -24 11 -56 20 -72 20 -33 0 -67 48
-67 95 0 39 39 121 81 171 67 79 64 70 35 98 -65 66 -208 3 -278 -121 -30 -52
-31 -53 -45 -33 -38 54 -104 41 -121 -22 -7 -29 -12 -32 -50 -35 -103 -7 -158
-78 -118 -154 11 -22 11 -28 -5 -48 -24 -30 -24 -62 1 -111 20 -40 103 -113
140 -125 25 -8 26 -32 3 -39 -77 -22 -88 -20 -140 32 -28 28 -63 53 -81 56
-17 4 -36 14 -43 22 -25 30 -88 54 -140 54 -67 0 -169 -28 -169 -46 0 -21 35
-51 86 -75 52 -25 79 -59 69 -89 -9 -29 -48 -52 -82 -48 -24 3 -28 8 -35 48
-10 59 -34 90 -92 119 -43 22 -54 23 -97 15 l-48 -10 15 27 c19 38 18 52 -9
81 -19 21 -23 36 -22 83 0 49 4 60 26 76 l26 19 44 -34 c91 -70 188 -68 261 7
21 22 38 45 38 52 0 23 -32 40 -83 45 l-51 5 3 53 c2 48 0 55 -31 86 -49 49
-97 56 -148 22 -29 -19 -40 -22 -40 -12 0 23 -49 75 -91 96 -75 39 -137 17
-155 -53 -3 -16 -16 -32 -28 -37 -12 -4 -42 -24 -67 -43 l-46 -35 -9 127 c-5
69 -9 193 -9 276 l0 150 38 6 c21 3 43 11 49 17 16 16 -15 58 -61 82 l-39 19
-7 203 c-7 190 -5 331 11 690 5 112 2 181 -11 285 -22 171 -16 276 17 325 28
41 111 138 118 138 3 0 16 -7 28 -16z m14862 -68 c0 -2 -7 -9 -15 -16 -12 -10
-15 -10 -15 4 0 9 7 16 15 16 8 0 15 -2 15 -4z m7013 -13 c-7 -2 -19 -2 -25 0
-7 3 -2 5 12 5 14 0 19 -2 13 -5z m-8233 -22 c0 -4 -11 -18 -25 -31 -21 -20
-25 -21 -25 -6 0 29 19 56 35 50 8 -4 15 -9 15 -13z m10030 -47 c22 -15 40
-30 40 -34 0 -10 -98 -23 -110 -15 -15 9 -12 42 6 59 20 20 17 21 64 -10z
m590 -33 c0 -21 -37 -35 -101 -37 -62 -3 -69 -1 -69 16 0 16 6 18 53 13 28 -2
63 0 77 5 32 14 40 14 40 3z m-10395 -21 c3 -5 -1 -10 -9 -10 -9 0 -16 5 -16
10 0 6 4 10 9 10 6 0 13 -4 16 -10z m1159 -31 c19 -11 59 -23 89 -26 l55 -6
-10 -27 c-7 -21 -18 -30 -42 -34 -37 -7 -86 7 -86 25 0 6 -11 22 -25 35 -14
13 -25 30 -25 39 0 19 2 19 44 -6z m-7624 -103 c0 -13 -4 -47 -10 -75 -7 -36
-6 -59 0 -72 13 -23 8 -24 -29 -5 -29 16 -91 80 -91 96 0 5 15 25 34 44 24 26
42 36 65 36 26 0 31 -4 31 -24z m15810 -40 c0 -45 -17 -74 -46 -78 -28 -3 -32
-8 -60 -71 -20 -45 -10 -62 47 -77 33 -9 38 -14 30 -29 -17 -30 -34 -39 -97
-46 -34 -4 -76 -15 -93 -26 -61 -37 -13 -64 61 -34 46 18 68 8 68 -31 0 -19 5
-24 24 -24 19 0 26 -7 31 -31 8 -35 9 -33 -29 -46 -38 -12 -57 -40 -36 -53 8
-5 25 -10 38 -10 21 0 19 -3 -18 -38 -44 -43 -47 -53 -25 -76 32 -31 79 -30
154 4 39 18 77 30 86 26 10 -4 14 -2 9 5 -4 7 -24 9 -50 6 -38 -4 -42 -2 -35
12 5 9 18 24 29 34 19 17 22 17 71 1 38 -12 75 -15 146 -12 96 4 127 -5 58
-18 -21 -4 -46 -13 -56 -22 -14 -12 -22 -13 -43 -3 -34 15 -42 7 -19 -19 17
-19 17 -20 -11 -31 -16 -6 -47 -8 -69 -5 -37 6 -39 5 -21 -9 12 -9 41 -15 76
-15 54 0 56 -1 65 -32 6 -20 21 -38 36 -45 17 -8 29 -24 32 -42 12 -61 54 -71
251 -60 l70 4 9 35 c12 47 21 57 65 64 62 11 80 9 111 -14 35 -24 40 -46 12
-55 -27 -8 -42 -30 -35 -48 7 -20 86 -50 187 -71 44 -9 83 -18 87 -21 5 -3 2
-21 -6 -40 -8 -19 -14 -50 -14 -70 0 -19 -4 -35 -9 -35 -5 0 -34 10 -65 21
-49 19 -62 20 -95 10 l-39 -11 5 -103 c7 -135 27 -177 86 -177 26 0 27 -2 27
-54 0 -50 4 -59 45 -107 61 -71 67 -74 103 -44 35 29 115 45 127 25 5 -8 -2
-31 -15 -55 -33 -61 -24 -75 49 -75 33 0 63 5 66 10 9 15 34 12 51 -5 25 -24
95 -19 138 10 44 30 46 30 46 6 0 -29 28 -45 78 -46 47 0 47 0 60 -45 28 -100
25 -95 62 -95 l34 0 57 -235 c51 -206 59 -255 68 -394 11 -178 5 -210 -28
-155 -11 19 -21 38 -21 43 0 19 -34 46 -57 46 -69 0 -164 -98 -147 -152 6 -21
5 -21 -10 -9 -10 8 -24 28 -33 45 -21 40 -30 46 -80 46 -97 0 -162 -55 -149
-125 6 -31 20 -47 95 -108 22 -17 22 -46 -1 -89 -11 -22 -66 -32 -101 -19 -16
6 -39 11 -53 11 -35 0 -74 -42 -74 -81 0 -45 37 -106 76 -124 30 -14 32 -18
22 -35 -10 -15 -9 -29 4 -70 15 -48 15 -51 -2 -60 -57 -31 -208 6 -304 73
l-28 20 30 13 c31 12 122 124 122 149 0 16 -29 41 -63 54 l-27 10 45 45 c46
46 57 80 33 104 -14 14 -16 13 58 50 34 17 78 46 98 65 30 29 36 41 36 76 0
57 -42 101 -95 101 -31 0 -36 3 -30 18 19 46 17 97 -7 131 -64 94 -201 99
-239 8 -16 -36 -18 -138 -5 -181 14 -44 -10 -24 -33 29 -25 57 -55 72 -104 52
-54 -23 -66 -72 -43 -178 9 -44 15 -88 11 -98 -3 -10 -20 -26 -38 -36 -30 -16
-35 -16 -71 -1 -48 20 -89 20 -125 1 -32 -16 -48 -48 -60 -123 -4 -29 -11 -55
-14 -59 -4 -3 -25 2 -48 13 -88 39 -131 117 -71 129 112 23 145 46 140 98 -3
28 0 32 22 35 56 7 90 24 110 56 11 18 20 41 20 50 0 16 -28 73 -51 107 -10
13 -2 25 40 67 106 106 108 212 6 262 -119 57 -185 -17 -185 -205 l0 -64 -35
21 c-73 42 -167 5 -185 -73 -6 -27 -9 -30 -15 -16 -5 12 4 33 29 70 47 69 50
119 6 142 -16 8 -48 15 -71 15 -29 0 -50 7 -70 25 -16 13 -46 27 -66 31 -21 4
-46 15 -56 25 -27 25 -66 32 -115 20 -40 -9 -42 -8 -42 16 0 30 15 60 48 96
32 34 49 34 92 -1 58 -48 74 -53 122 -43 23 6 48 18 55 27 33 45 24 144 -17
182 -20 18 -19 20 46 91 36 40 64 80 62 88 -2 9 -16 25 -31 37 -24 18 -43 21
-121 21 l-92 0 -18 38 c-34 71 -116 98 -170 56 -22 -17 -26 -28 -26 -69 0 -27
6 -80 14 -117 14 -63 10 -132 -7 -150 -3 -3 -25 16 -50 41 -41 43 -47 46 -94
46 -66 0 -80 -6 -98 -41 -20 -38 -19 -61 7 -114 12 -24 20 -47 17 -49 -3 -3
-21 -3 -41 0 l-36 6 -6 257 c-11 448 -11 532 3 702 12 154 11 175 -8 315 -14
104 -19 172 -14 224 7 81 7 82 105 208 32 40 61 85 64 99 4 15 27 64 51 110
47 87 76 109 113 85 13 -8 25 -6 49 9 35 21 35 22 21 50 -9 16 -7 19 15 19 20
0 25 -5 25 -24z m-9982 -37 c-2 -6 -8 -10 -13 -10 -5 0 -11 4 -13 10 -2 6 4
11 13 11 9 0 15 -5 13 -11z m2117 -34 c15 -37 16 -49 5 -75 -15 -36 -22 -37
-35 -7 -7 14 -27 27 -57 37 -27 8 -48 18 -48 22 0 3 15 11 34 18 18 6 42 20
51 30 26 28 31 26 50 -25z m3308 18 c12 -11 -13 -31 -33 -26 -21 5 -25 15 -13
26 8 9 38 9 46 0z m-15267 -39 c3 -19 4 -53 1 -76 -12 -88 38 -140 140 -146
47 -3 72 1 105 15 145 67 167 70 168 20 0 -42 -69 -125 -132 -157 -12 -7 -32
-21 -43 -30 -29 -26 -120 -50 -190 -50 -71 0 -105 19 -124 70 -6 16 -16 44
-23 61 -24 65 -127 91 -195 49 -18 -11 -33 -23 -33 -27 -1 -5 -9 -18 -20 -31
l-19 -23 -52 27 c-29 14 -61 37 -71 49 -10 12 -39 28 -65 35 -53 14 -49 18 42
39 71 17 215 99 240 137 18 28 27 32 85 39 36 4 85 13 110 20 67 19 69 18 76
-21z m19422 -64 l22 -18 -21 -36 c-11 -20 -25 -33 -30 -30 -11 6 -12 104 -1
104 4 -1 17 -9 30 -20z m-15211 0 l105 0 -6 -27 c-4 -16 -21 -57 -38 -92 -22
-47 -28 -69 -21 -80 19 -31 74 -59 126 -66 28 -3 60 -9 69 -11 25 -7 69 -87
71 -126 3 -49 50 -70 142 -65 39 2 78 7 88 12 14 6 10 -5 -15 -39 -29 -41 -36
-46 -58 -39 -14 4 -52 7 -84 8 -117 0 -72 -41 107 -100 111 -36 153 -40 242
-26 41 7 57 5 87 -10 20 -10 40 -24 44 -31 14 -22 32 -152 26 -187 -6 -37 -74
-111 -103 -111 -35 0 -39 23 -19 100 17 67 18 77 4 98 -22 33 -60 44 -133 40
-55 -4 -67 -8 -88 -32 -28 -33 -28 -32 -46 19 -22 62 -55 80 -146 80 -56 0
-84 -5 -104 -18 -26 -17 -26 -18 -24 -120 2 -91 6 -109 35 -171 18 -38 31 -70
29 -72 -2 -2 -49 8 -106 21 -56 14 -114 25 -129 25 -27 0 -72 -24 -72 -39 0
-4 22 -35 50 -69 l50 -62 -43 -1 c-131 -2 -258 -16 -273 -31 -14 -14 -13 -18
13 -42 80 -76 155 -96 353 -96 80 0 160 4 179 10 l33 9 -7 -79 -7 -80 36 -15
c71 -30 140 -16 314 62 8 3 12 -5 12 -30 0 -19 9 -45 20 -60 26 -32 161 -97
203 -97 l32 0 -3 -407 c-3 -444 -15 -750 -32 -767 -7 -7 -10 9 -10 50 0 90
-15 130 -73 189 -61 62 -121 82 -212 70 -62 -7 -160 -53 -160 -75 0 -14 41
-32 95 -44 14 -3 44 -21 65 -39 37 -32 39 -37 40 -93 l0 -59 -79 -6 c-119 -10
-137 -42 -55 -97 43 -29 43 -50 0 -79 -70 -47 -129 -21 -138 59 -7 60 10 116
59 188 39 60 41 63 23 76 -10 8 -34 14 -52 14 -29 0 -36 5 -49 35 -20 49 -18
95 11 177 28 81 30 97 14 132 -24 52 -129 58 -197 13 -70 -47 -120 -202 -101
-317 l9 -60 -35 -35 c-25 -26 -35 -44 -35 -68 0 -30 -4 -33 -66 -57 -93 -35
-98 -44 -47 -89 l41 -37 -53 0 c-83 0 -145 -57 -145 -135 0 -49 32 -79 114
-108 36 -13 66 -25 66 -28 0 -2 -7 -18 -16 -35 -15 -28 -14 -34 2 -76 21 -55
73 -114 120 -137 33 -15 34 -18 18 -30 -15 -11 -24 -10 -53 6 -37 20 -109 24
-146 10 -15 -6 -29 0 -57 25 -43 38 -106 58 -157 49 -47 -9 -110 -42 -118 -62
-3 -9 8 -41 26 -74 34 -61 50 -152 33 -177 -8 -12 -15 -11 -41 3 -51 26 -125
31 -157 10 -28 -18 -28 -30 -3 -92 17 -42 5 -53 -48 -46 -36 5 -43 9 -43 27 0
24 20 65 69 143 22 35 31 58 26 72 -8 27 -62 59 -113 67 -40 6 -42 8 -42 41 0
46 -14 69 -50 81 l-30 11 30 56 c60 113 32 185 -72 185 -66 0 -100 -19 -190
-108 -43 -42 -80 -74 -83 -71 -8 8 -25 107 -21 121 3 7 7 25 10 41 6 25 10 27
58 27 125 0 228 68 228 149 0 22 -5 43 -11 46 -6 4 5 20 28 39 25 22 38 42 38
61 1 23 8 30 41 41 48 16 67 39 94 111 25 67 23 83 -12 103 -25 14 -33 13 -95
-8 -90 -29 -96 -30 -100 -11 -3 11 5 19 23 23 41 11 113 64 135 99 30 50 25
93 -15 133 -31 31 -39 34 -97 34 -43 0 -76 -6 -107 -21 -33 -17 -46 -19 -55
-10 -19 19 -10 109 18 190 31 93 31 112 0 141 -33 31 -107 33 -154 4 -45 -26
-91 -92 -106 -151 l-12 -48 -59 -6 c-50 -6 -63 -12 -90 -42 -65 -70 -55 -139
25 -183 28 -15 51 -31 51 -36 0 -5 -11 -14 -25 -20 -35 -16 -31 -35 14 -57 35
-18 58 -47 47 -58 -8 -9 -81 -23 -116 -23 -58 0 -65 -17 -25 -62 19 -21 35
-47 35 -58 0 -27 -51 -82 -115 -124 -88 -59 -85 -60 -85 32 0 79 0 80 53 165
62 98 94 195 77 228 -14 25 -68 49 -110 49 -44 0 -56 37 -65 195 -3 72 -11
171 -16 220 -25 225 -50 602 -55 835 -6 210 -4 276 10 375 37 259 45 287 90
303 51 19 93 72 102 127 4 27 13 49 21 52 30 12 307 -140 350 -191 35 -43 66
-53 88 -29 9 10 41 51 71 91 30 39 59 72 64 72 5 0 10 -15 12 -32 5 -50 59
-73 163 -72 194 3 238 61 151 197 -20 31 -36 61 -36 67 0 24 162 -3 211 -36
63 -43 135 -55 198 -33 38 13 41 40 5 59 -18 10 -24 20 -20 35 3 11 6 53 6 93
0 64 2 72 19 72 33 0 51 11 51 32 0 18 5 20 31 14 17 -3 79 -6 136 -6z m14153
-30 c0 -5 -4 -10 -10 -10 -5 0 -10 5 -10 10 0 6 5 10 10 10 6 0 10 -4 10 -10z
m837 -131 c-3 -63 -10 -361 -16 -664 -6 -302 -16 -620 -22 -705 -6 -85 -9
-191 -8 -235 3 -75 1 -82 -24 -107 -15 -15 -27 -32 -27 -38 0 -13 -37 -13 -45
0 -3 5 -15 60 -25 122 -11 62 -27 149 -35 193 -9 44 -20 103 -25 130 -5 28
-16 84 -25 125 -14 59 -15 78 -5 94 10 16 9 22 -7 35 -21 18 -35 71 -82 326
-22 120 -32 214 -40 378 -11 215 -10 219 11 247 20 27 20 30 4 54 -29 46 -22
54 47 53 35 0 73 5 87 13 14 8 43 14 65 15 43 0 64 18 28 23 -12 2 -27 10 -33
18 -11 12 -4 14 46 14 42 0 68 6 89 20 16 11 33 16 38 11 5 -5 6 -60 4 -122z
m-2012 81 c3 -5 1 -10 -4 -10 -6 0 -11 5 -11 10 0 6 2 10 4 10 3 0 8 -4 11
-10z m-10887 -71 c2 -13 -4 -33 -12 -44 -14 -19 -15 -17 -16 28 0 35 4 47 13
45 6 -3 13 -15 15 -29z m282 14 c0 -12 -81 -76 -87 -69 -7 7 61 76 76 76 6 0
11 -3 11 -7z m15754 -25 c9 -12 16 -36 16 -53 0 -17 4 -35 9 -40 5 -6 11 -21
13 -35 2 -19 10 -26 29 -28 36 -4 56 -28 68 -82 9 -39 7 -47 -10 -63 -10 -10
-19 -24 -19 -32 0 -8 -4 -17 -10 -20 -12 -7 -59 26 -60 42 0 21 21 26 34 7 11
-15 13 -11 12 30 -1 42 -4 47 -26 52 -46 10 -50 13 -50 38 0 14 -11 60 -25
103 -14 43 -25 84 -25 91 0 20 28 14 44 -10z m-12569 2 c7 -12 -12 -12 -40 0
-18 8 -17 9 7 9 15 1 30 -3 33 -9z m11606 -34 c14 -16 10 -56 -6 -62 -8 -4
-27 7 -46 25 -17 17 -36 31 -44 31 -7 0 -18 6 -24 14 -10 12 -4 16 36 21 26 4
53 8 58 9 6 2 12 -4 13 -13 2 -9 8 -20 13 -25z m-11409 4 c-3 -22 0 -31 14
-37 11 -3 30 -15 43 -25 32 -24 92 -23 124 2 27 22 48 27 29 8 -21 -21 -13
-38 16 -38 19 -1 33 -10 47 -33 34 -54 79 -77 151 -77 35 0 65 -4 68 -9 3 -4
32 -14 65 -20 61 -12 76 -22 83 -56 2 -11 15 -23 33 -28 51 -16 60 -24 57 -50
-3 -33 31 -42 78 -19 21 10 52 16 76 14 l41 -3 -5 -45 c-4 -40 -3 -44 17 -44
18 0 21 6 21 41 0 34 -6 46 -37 75 -41 38 -36 58 13 52 26 -3 30 -7 36 -53 11
-75 18 -330 11 -413 -5 -65 -8 -74 -31 -85 -37 -17 -65 -72 -66 -127 -1 -40 5
-55 37 -95 34 -44 37 -54 37 -112 l0 -64 -56 -26 c-80 -36 -131 -40 -182 -14
-23 12 -51 21 -63 21 -17 0 -20 4 -15 23 4 12 9 43 13 69 5 42 3 50 -24 76
l-29 29 63 6 c74 7 153 39 153 62 0 24 -49 37 -115 30 l-61 -6 -38 55 c-45 66
-105 123 -168 160 -61 36 -180 75 -248 82 -89 9 -99 12 -93 32 2 10 20 27 39
37 92 50 68 100 -120 250 l-99 79 48 22 c26 12 56 25 66 27 11 3 19 13 19 24
0 16 9 18 84 18 56 0 89 4 98 13 17 17 0 28 -60 37 -46 7 -163 78 -189 115
-16 23 -11 50 10 50 9 0 12 -9 9 -30z m-8882 -58 c0 -27 -6 -70 -14 -95 l-14
-46 45 -37 c76 -62 154 -59 263 11 30 19 63 35 73 35 17 0 19 -5 13 -37 -23
-127 -20 -155 22 -177 44 -22 108 -29 163 -16 42 10 58 21 102 73 29 33 83 94
120 134 l68 73 15 -37 c9 -20 58 -112 110 -203 126 -223 132 -252 154 -735 6
-126 17 -297 25 -380 11 -111 14 -203 9 -353 l-7 -202 -41 -19 c-61 -27 -78
-51 -85 -126 -5 -48 -13 -71 -29 -87 -12 -12 -25 -19 -29 -15 -4 4 -1 41 6 83
16 97 9 108 -67 102 -29 -3 -55 -2 -57 2 -2 3 9 26 26 51 28 43 37 96 23 134
-15 38 -117 59 -167 34 -12 -6 -41 -30 -65 -53 -35 -34 -44 -38 -52 -26 -17
26 -11 92 15 173 44 139 30 193 -52 203 -53 7 -101 -20 -140 -79 l-33 -49 -87
-2 c-90 -3 -144 -18 -176 -50 -25 -25 -21 -45 16 -80 19 -17 48 -48 66 -69
l33 -37 -31 -35 c-17 -20 -33 -48 -37 -63 -3 -15 -8 -33 -10 -41 -8 -26 16
-87 38 -99 21 -10 60 -16 99 -13 10 1 41 19 70 41 30 22 63 40 74 40 40 0 85
-66 85 -123 l0 -35 -42 10 c-55 12 -100 3 -135 -26 -15 -13 -46 -26 -67 -29
-22 -3 -56 -20 -77 -37 -30 -24 -48 -30 -84 -30 -83 0 -127 -41 -111 -104 3
-14 20 -47 37 -75 21 -34 29 -56 24 -68 -6 -14 -10 -8 -19 27 -21 85 -108 114
-194 64 l-45 -27 6 79 c7 95 -7 169 -39 201 -45 45 -150 21 -208 -47 -20 -25
-26 -42 -26 -81 0 -63 15 -93 80 -153 l52 -48 -29 -42 c-49 -68 -57 -99 -39
-135 22 -42 54 -60 115 -68 40 -5 49 -9 40 -19 -6 -7 -9 -25 -7 -40 4 -35 49
-63 115 -72 42 -6 48 -10 51 -33 4 -34 -26 -69 -88 -103 -61 -33 -80 -29 -80
17 0 18 -7 57 -16 86 -13 44 -21 55 -49 67 -43 17 -63 18 -96 0 -46 -24 -78
-27 -109 -11 -41 21 -45 50 -20 140 35 125 11 195 -68 195 -44 0 -57 -12 -96
-85 -22 -40 -26 -44 -21 -20 15 82 17 107 11 149 -19 126 -138 152 -241 52
-51 -49 -64 -95 -42 -148 l15 -36 -44 -5 c-52 -5 -72 -20 -91 -66 -29 -69 6
-120 122 -178 84 -42 82 -40 67 -55 -22 -22 -13 -65 21 -101 17 -19 39 -36 47
-39 18 -6 17 -7 -34 -33 -64 -32 -66 -45 -21 -111 49 -71 73 -94 98 -94 54 0
-58 -79 -153 -107 -57 -17 -163 -23 -176 -10 -4 4 0 32 10 62 13 41 14 60 6
75 -9 17 -7 22 12 29 77 30 114 146 62 197 -21 22 -31 25 -62 20 -127 -23
-146 -17 -157 46 -6 31 -3 39 16 55 73 57 99 91 99 127 0 66 -31 95 -113 110
-68 13 -92 1 -129 -62 l-32 -57 -6 47 c-15 121 -180 185 -210 81 -6 -21 -17
-47 -25 -57 -14 -19 -15 -18 -36 7 -33 42 -58 52 -141 52 -59 0 -81 4 -94 17
-16 16 -16 20 -1 60 23 60 101 155 142 175 43 20 44 34 5 67 -38 31 -88 46
-160 46 -78 0 -154 -46 -189 -114 -34 -67 -36 -163 -3 -225 13 -24 21 -45 20
-47 -2 -1 -21 1 -42 6 -23 5 -49 5 -63 -1 -24 -9 -25 -12 -20 -72 3 -34 9 -74
12 -88 5 -19 0 -33 -21 -58 -27 -33 -28 -33 -36 -11 -5 12 -13 79 -19 148 -11
121 -11 125 9 141 22 17 72 86 72 100 0 22 -45 62 -80 71 -36 10 -39 14 -45
55 -8 50 -2 65 26 65 31 0 23 36 -16 67 -25 20 -35 36 -35 55 0 45 36 61 139
62 93 1 121 12 121 48 0 31 -38 95 -85 145 -41 42 -43 48 -30 63 21 23 19 57
-6 96 l-20 33 37 16 c82 34 158 117 174 191 18 79 -37 152 -123 161 -37 4 -45
1 -72 -27 -16 -17 -44 -59 -61 -93 -31 -63 -69 -95 -101 -83 -13 5 -15 25 -10
139 3 105 11 156 36 250 17 65 31 119 31 122 0 2 14 20 31 40 28 32 30 38 20
63 -18 43 7 104 47 116 41 12 73 2 111 -33 27 -25 31 -36 31 -78 0 -41 5 -54
28 -76 78 -75 225 -85 301 -21 28 23 32 24 58 11 39 -20 124 -37 186 -37 96 0
217 42 217 75 0 7 -10 17 -22 20 -13 4 -57 29 -100 56 -42 27 -116 65 -164 86
-134 58 -164 108 -150 246 l7 65 52 6 c74 10 133 38 140 68 4 13 25 39 47 57
l41 32 42 -20 c90 -43 196 -36 237 17 20 25 22 45 5 84 -5 12 4 24 34 44 23
15 44 37 47 49 4 18 15 24 54 29 69 9 156 41 220 80 52 32 61 34 165 38 91 3
118 8 155 27 48 25 92 55 126 83 20 17 21 17 37 -20 9 -22 28 -44 42 -50 36
-16 119 -15 160 2 40 17 75 68 75 109 0 19 7 30 23 37 35 14 37 13 37 -38z
m20235 -2 c21 -23 12 -39 -13 -24 -19 12 -29 44 -14 44 5 0 17 -9 27 -20z
m-9740 -22 c-9 -28 -22 -41 -57 -56 -27 -11 -28 -11 -28 21 0 30 4 35 38 44
54 15 54 15 47 -9z m7066 -20 l57 -11 6 -71 c3 -39 9 -176 13 -305 5 -210 8
-235 25 -250 21 -18 24 -61 6 -80 -11 -10 -9 -15 5 -26 13 -9 22 -36 30 -84
10 -64 9 -72 -9 -92 -18 -20 -18 -21 0 -35 20 -14 34 -76 35 -155 1 -25 4 -49
8 -53 4 -4 19 -48 33 -99 21 -70 24 -96 16 -110 -8 -13 -8 -20 3 -26 8 -5 22
-46 32 -92 17 -81 17 -83 -2 -97 -25 -17 -24 -26 6 -40 l24 -11 -30 -31 c-23
-23 -39 -30 -69 -30 -49 0 -85 -14 -94 -35 -14 -38 20 -130 107 -286 40 -72
60 -159 36 -159 -21 0 -185 126 -210 161 -27 38 -19 73 21 94 51 26 41 37 -65
67 -70 20 -68 37 10 68 l30 12 -30 24 -29 23 39 16 c60 24 69 30 79 57 22 61
-23 121 -104 141 -51 13 -55 17 -65 53 -25 97 -83 147 -171 147 -86 0 -100
-26 -69 -128 18 -59 22 -132 7 -147 -7 -7 -27 -2 -65 16 -30 15 -80 30 -110
33 -50 5 -58 3 -81 -20 -41 -41 -36 -84 17 -134 23 -22 57 -49 75 -59 17 -10
32 -22 32 -26 0 -15 -28 -8 -93 22 -67 32 -110 33 -121 4 -3 -7 2 -36 10 -63
14 -50 53 -93 94 -106 15 -5 19 -12 15 -25 -4 -12 5 -30 24 -53 28 -31 29 -37
19 -64 -24 -64 61 -137 194 -167 53 -11 53 -12 56 -53 3 -41 -20 -114 -35
-112 -4 0 -34 34 -65 74 -32 41 -69 82 -84 91 -35 24 -105 33 -146 20 -30 -10
-33 -15 -36 -53 -2 -27 4 -59 16 -87 l20 -44 -34 -6 c-35 -7 -64 -38 -64 -68
0 -15 -9 -18 -45 -18 -52 0 -113 -22 -121 -44 -3 -8 9 -47 26 -86 17 -39 32
-84 33 -98 2 -26 0 -27 -43 -27 -54 0 -64 21 -30 68 17 22 20 34 13 46 -24 38
-87 50 -165 32 l-38 -9 0 37 c0 42 28 92 71 128 43 37 35 61 -30 95 -70 37
-147 38 -208 4 -40 -23 -44 -23 -85 -9 -28 10 -58 13 -88 8 -74 -11 -93 -11
-97 0 -2 6 17 16 41 23 49 13 109 60 131 102 12 23 12 31 0 53 -16 31 -14 33
45 41 84 13 97 17 119 37 64 59 -18 158 -131 159 l-43 1 48 25 c26 13 47 28
47 33 0 5 -33 23 -73 42 -62 27 -73 36 -70 53 4 21 -21 56 -54 75 -16 8 -16
12 -3 37 9 17 15 53 14 95 0 62 1 67 17 58 26 -14 103 -11 124 5 18 13 17 16
-19 87 -21 41 -47 83 -57 95 -44 48 -8 77 50 39 87 -54 189 -76 225 -46 20 17
13 31 -29 60 -39 26 -43 45 -18 73 21 24 30 23 97 -8 63 -29 475 -118 545
-118 26 0 46 5 49 12 2 7 20 12 41 12 45 0 137 26 147 42 14 23 -29 40 -89 36
-56 -4 -59 -3 -79 26 -33 48 -99 116 -138 141 -52 33 -174 75 -241 82 -69 7
-74 19 -24 57 64 49 40 94 -107 208 -86 67 -87 71 -5 97 20 7 37 19 37 27 0
11 16 14 68 14 68 0 99 10 88 28 -3 5 -20 13 -38 16 l-33 7 62 29 c34 15 81
41 105 58 24 16 66 34 93 41 64 16 153 69 170 102 12 22 11 30 -4 56 -10 16
-36 44 -57 61 -21 17 -36 33 -33 35 2 2 24 10 49 18 43 14 48 19 79 87 4 8 35
14 93 17 53 2 97 9 115 19 15 9 39 14 53 11 14 -3 50 -10 81 -17z m-8740 -19
c75 -41 80 -78 7 -50 -22 8 -87 81 -72 81 3 0 33 -14 65 -31z m1027 -31 c-2
-47 -7 -63 -17 -63 -24 0 -34 60 -16 95 25 48 36 37 33 -32z m10130 23 c12
-27 8 -61 -8 -61 -4 0 -18 8 -30 18 -22 18 -22 19 -5 45 22 34 27 34 43 -2z
m-18931 -7 c13 -8 29 -24 37 -37 17 -27 34 -203 18 -193 -24 15 -132 222 -132
253 0 9 54 -8 77 -23z m9573 5 c0 -5 -4 -9 -10 -9 -5 0 -10 7 -10 16 0 8 5 12
10 9 6 -3 10 -10 10 -16z m6404 -8 c3 -5 0 -11 -8 -14 -15 -6 -26 1 -26 15 0
11 27 10 34 -1z m-7607 -17 c-3 -3 -12 -4 -19 -1 -8 3 -5 6 6 6 11 1 17 -2 13
-5z m1313 -64 c0 -5 -7 -10 -15 -10 -8 0 -15 5 -15 10 0 6 7 10 15 10 8 0 15
-4 15 -10z m105 0 c3 -5 -3 -10 -14 -10 -11 0 -23 5 -26 10 -3 6 3 10 14 10
11 0 23 -4 26 -10z m-1187 -40 c19 -24 21 -32 11 -54 -15 -32 -31 -34 -27 -3
2 15 -4 25 -19 32 -14 6 -23 18 -23 32 0 32 30 29 58 -7z m759 4 c-3 -3 -12
-4 -19 -1 -8 3 -5 6 6 6 11 1 17 -2 13 -5z m130 -34 c18 -16 46 -31 61 -32 15
-1 35 -2 44 -3 32 -2 28 -12 -11 -25 -39 -12 -40 -12 -94 31 -31 24 -56 47
-56 52 -2 16 23 6 56 -23z m9883 -35 c0 -8 -4 -15 -9 -15 -5 0 -11 7 -15 15
-3 9 0 15 9 15 8 0 15 -7 15 -15z m-14856 -3 c3 -5 -26 -51 -64 -103 -38 -52
-70 -98 -70 -104 0 -6 -63 -10 -167 -10 -163 0 -171 -1 -255 -31 l-87 -31 14
28 c8 15 15 39 15 52 0 23 2 24 113 31 198 11 321 51 422 134 49 42 69 50 79
34z m106 -11 c0 -5 -12 -14 -27 -20 -16 -6 -36 -25 -45 -41 -9 -17 -22 -30
-28 -30 -5 0 2 22 18 50 22 41 32 50 55 50 15 0 27 -4 27 -9z m13852 -23 c-9
-9 -15 -9 -24 0 -9 9 -7 12 12 12 19 0 21 -3 12 -12z m177 -20 c17 -29 10 -47
-11 -31 -7 6 -30 16 -50 22 -57 19 -46 42 17 38 20 -1 34 -10 44 -29z m486
-18 c24 0 27 -34 5 -52 -17 -14 -40 -18 -94 -18 -91 0 -116 -15 -116 -70 0
-21 -4 -42 -10 -45 -6 -4 -10 11 -10 37 0 30 8 55 25 81 22 31 31 37 63 37 20
0 51 9 67 19 17 11 36 18 43 15 8 -2 20 -4 27 -4z m-225 -29 c0 -5 -7 -14 -15
-21 -13 -10 -15 -9 -15 9 0 12 6 21 15 21 8 0 15 -4 15 -9z m1450 -21 c0 -5
-7 -10 -16 -10 -8 0 -12 5 -9 10 3 6 10 10 16 10 5 0 9 -4 9 -10z m-17030 -30
c0 -46 25 -86 61 -99 47 -16 190 -14 215 3 19 14 23 12 58 -29 22 -27 49 -48
69 -53 l32 -8 -65 -44 c-75 -50 -204 -176 -244 -237 -35 -53 -29 -76 31 -106
l45 -23 -76 -59 c-42 -32 -76 -64 -76 -72 0 -17 41 -33 83 -33 19 0 89 28 172
68 77 38 187 91 245 118 134 63 106 70 -37 9 -59 -26 -115 -49 -123 -53 -12
-5 -13 -3 -3 10 7 8 30 20 51 26 21 6 58 25 83 42 36 23 70 34 158 49 62 10
118 24 124 30 18 18 -13 37 -75 45 l-52 7 57 57 c56 55 57 56 90 44 18 -7 75
-12 125 -12 90 0 93 -1 102 -26 16 -41 13 -44 -46 -44 -60 0 -94 -13 -94 -35
0 -8 -5 -15 -12 -15 -15 0 -48 -30 -48 -43 0 -6 10 -1 23 10 12 11 30 23 39
26 25 9 162 -36 166 -54 1 -9 -13 -44 -33 -78 -19 -35 -35 -73 -35 -86 0 -50
133 -135 212 -135 10 0 21 -7 24 -15 3 -8 21 -20 40 -27 19 -6 34 -15 34 -18
0 -10 -52 -34 -172 -81 -60 -23 -108 -47 -108 -54 0 -7 -13 -15 -30 -18 -16
-4 -30 -11 -30 -17 0 -19 49 -22 199 -12 l150 9 45 37 45 37 33 -17 c42 -22
168 -30 239 -15 30 6 78 23 107 37 56 27 66 52 36 85 -14 16 -11 17 48 24 35
3 89 13 121 21 33 8 62 12 65 10 4 -2 6 -33 4 -69 l-4 -65 -31 9 c-75 21 -208
1 -215 -32 -9 -48 94 -107 228 -131 51 -9 64 -8 85 6 29 19 31 35 10 76 -14
28 -14 30 2 30 10 0 28 3 41 6 27 8 29 -13 5 -63 -16 -35 -16 -36 6 -54 13
-11 32 -19 42 -19 20 0 56 -46 45 -57 -3 -4 -18 4 -32 18 -21 19 -36 24 -77
23 -29 0 -67 -8 -86 -18 -28 -15 -38 -16 -62 -5 -44 17 -174 6 -237 -21 -70
-30 -132 -98 -132 -144 0 -40 20 -56 70 -56 40 0 68 15 101 53 21 26 28 28 46
19 12 -7 24 -26 28 -42 9 -41 42 -70 79 -70 l29 0 -21 -22 c-27 -30 -44 -76
-36 -100 4 -15 -5 -28 -35 -55 -30 -25 -44 -47 -52 -79 -9 -36 -17 -45 -38
-50 -66 -15 -121 -37 -160 -65 -38 -29 -71 -74 -71 -98 0 -21 46 -52 102 -67
32 -9 58 -20 58 -24 0 -3 -33 -26 -74 -49 -41 -23 -77 -49 -80 -57 -3 -9 9
-23 34 -39 62 -39 66 -103 10 -186 -55 -84 -123 -99 -197 -43 -47 35 -116 56
-148 44 -22 -9 -25 -7 -25 15 0 13 11 59 25 102 14 43 25 90 25 105 0 37 -33
58 -94 58 -70 0 -127 -31 -172 -92 -31 -41 -39 -48 -48 -36 -43 59 -197 45
-230 -21 -23 -43 -36 -135 -26 -172 11 -39 10 -40 -51 -63 -104 -38 -104 -90
1 -144 36 -19 71 -38 77 -44 17 -14 16 -99 -1 -123 -12 -17 -14 -17 -37 -2
-41 29 -84 22 -115 -18 -32 -43 -52 -44 -88 -6 l-28 29 26 34 c33 44 56 111
59 170 3 65 -30 99 -102 106 -64 6 -105 -11 -132 -55 l-21 -34 -17 33 c-21 43
-55 60 -108 55 -54 -6 -73 -21 -73 -59 0 -39 -20 -75 -69 -122 l-40 -39 -11
27 c-24 65 -6 107 65 143 69 35 83 78 47 138 l-18 30 78 48 c192 118 211 290
35 305 l-55 4 5 62 c5 59 4 64 -21 84 -42 32 -106 38 -196 16 l-78 -19 -5 405
c-4 280 -11 437 -21 509 -8 58 -13 108 -10 113 3 4 18 8 34 8 37 0 65 36 79
102 14 63 0 84 -66 94 l-44 6 3 56 c2 36 8 58 18 63 8 4 58 28 110 52 104 49
180 99 180 121 0 7 -33 36 -73 64 -68 47 -187 157 -187 173 0 12 60 59 76 59
9 0 14 -11 14 -30z m9371 -21 c-45 -37 -56 -26 -13 13 19 16 37 26 40 23 4 -4
-8 -20 -27 -36z m3109 -5 c28 4 50 3 50 -2 0 -11 -100 -57 -145 -68 -25 -5
-28 -4 -17 7 17 18 15 40 -8 69 -31 39 -24 43 25 14 40 -23 53 -26 95 -20z
m3410 31 c0 -9 -11 -26 -25 -39 -14 -13 -25 -29 -25 -35 0 -18 -49 -32 -86
-25 -24 4 -35 13 -42 34 l-10 27 54 6 c30 3 69 15 87 25 40 25 47 26 47 7z
m-3799 -28 c9 -33 -1 -34 -30 -3 -17 18 -19 25 -9 29 22 9 32 2 39 -26z m159
-9 c0 -13 -23 -5 -28 10 -2 7 2 10 12 6 9 -3 16 -11 16 -16z m-10996 -80 c-6
-10 -64 -11 -64 -1 0 4 12 20 27 35 l28 29 7 -27 c4 -15 5 -31 2 -36z m11036
32 c0 -5 -2 -10 -4 -10 -3 0 -8 5 -11 10 -3 6 -1 10 4 10 6 0 11 -4 11 -10z
m-89 -57 c32 -17 46 -30 40 -36 -14 -14 -62 8 -84 38 -23 32 -16 31 44 -2z
m-7736 -23 c3 -5 2 -10 -4 -10 -5 0 -13 5 -16 10 -3 6 -2 10 4 10 5 0 13 -4
16 -10z m1309 -17 c-4 -16 -12 -37 -18 -48 -10 -19 -11 -18 -15 10 l-4 30 -8
-30 c-7 -26 -8 -25 -4 9 4 39 17 56 43 56 8 0 10 -8 6 -27z m9886 -63 c0 -3
-21 -12 -48 -20 -30 -10 -50 -23 -57 -37 -13 -30 -20 -29 -35 6 -13 33 1 96
23 104 11 3 117 -44 117 -53z m-21876 10 c-7 -7 -19 -7 -35 -1 -23 9 -22 10
11 10 23 1 31 -2 24 -9z m10941 -97 l40 -28 -38 -3 c-40 -3 -77 18 -77 45 0
21 32 15 75 -14z m4815 8 c0 -5 -9 -11 -21 -14 -11 -3 -23 -15 -26 -26 -3 -11
-11 -22 -19 -25 -10 -4 -9 5 6 34 13 26 27 40 40 40 11 0 20 -4 20 -9z m-5524
-72 c81 -14 95 -19 89 -30 -7 -10 -117 -12 -152 -3 -11 3 -23 14 -26 25 -6 23
4 23 89 8z m818 -34 c3 -9 0 -15 -9 -15 -8 0 -15 7 -15 15 0 8 4 15 9 15 5 0
11 -7 15 -15z m-430 -45 c46 -19 163 -48 303 -75 125 -25 233 -47 239 -49 7
-3 -7 -25 -32 -50 -77 -81 -92 -149 -49 -230 27 -50 20 -58 -25 -25 -25 19
-37 21 -97 16 -76 -7 -106 -25 -134 -77 -30 -55 -25 -96 16 -137 41 -41 42
-46 15 -83 -17 -24 -28 -28 -78 -32 -74 -5 -114 -32 -149 -101 -31 -61 -41
-157 -23 -211 6 -21 9 -40 6 -43 -9 -9 -85 48 -113 84 -14 18 -28 55 -33 85
-5 29 -12 65 -15 80 -5 19 -1 35 16 57 19 26 21 34 11 55 -15 34 -60 55 -131
63 -84 8 -152 -25 -207 -102 -48 -68 -69 -69 -68 -3 1 82 94 237 165 273 15 8
51 20 79 26 38 8 50 15 50 29 0 20 -19 34 -85 62 -22 9 -32 17 -23 17 48 2 89
47 59 65 -5 3 -25 38 -45 78 -19 40 -45 85 -57 100 -22 27 -21 54 5 64 7 3 37
-9 65 -27 107 -65 211 -87 258 -54 29 20 22 35 -33 74 -49 36 -55 61 -21 84
31 22 46 21 131 -13z m-4600 -1 c-3 -5 -10 -7 -15 -3 -5 3 -7 10 -3 15 3 5 10
7 15 3 5 -3 7 -10 3 -15z m9716 -46 c0 -7 -11 -13 -25 -13 -29 0 -31 7 -8 32
13 14 18 16 25 6 4 -7 8 -19 8 -25z m6443 -50 c23 -5 27 -10 27 -39 0 -33 -1
-33 -27 -22 -37 15 -49 28 -58 57 -6 21 -5 23 11 17 11 -4 31 -10 47 -13z
m-3753 -3 c0 -5 -2 -10 -4 -10 -3 0 -8 5 -11 10 -3 6 -1 10 4 10 6 0 11 -4 11
-10z m4382 -102 c-9 -36 -34 -45 -40 -14 -2 10 -1 39 3 64 l7 46 19 -31 c16
-25 18 -38 11 -65z m-15452 51 c0 -4 -7 -6 -15 -3 -8 4 -15 10 -15 15 0 4 7 6
15 3 8 -4 15 -10 15 -15z m14656 -6 c-10 -10 -19 5 -10 18 6 11 8 11 12 0 2
-7 1 -15 -2 -18z m-14497 -30 c3 -2 0 -8 -6 -14 -7 -7 -21 -6 -47 5 -20 8 -36
18 -36 21 0 5 82 -5 89 -12z m15708 11 c-3 -3 -12 -4 -19 -1 -8 3 -5 6 6 6 11
1 17 -2 13 -5z m-7759 -62 c48 -3 90 -10 94 -16 17 -26 7 -36 -36 -36 -53 0
-76 -8 -76 -24 0 -7 -11 -18 -25 -24 -14 -6 -25 -16 -25 -22 0 -6 11 -3 26 6
22 15 32 15 78 5 29 -6 62 -18 72 -25 17 -13 16 -17 -15 -75 -23 -44 -31 -70
-27 -87 9 -35 78 -81 142 -94 30 -6 54 -16 54 -21 0 -6 14 -15 31 -21 43 -15
27 -28 -91 -73 -52 -20 -101 -42 -110 -49 -44 -38 -59 -39 -101 -3 -43 37 -74
47 -150 47 -60 0 -98 -17 -105 -46 -3 -13 7 -54 25 -99 39 -97 39 -106 2 -99
-36 7 -95 -11 -136 -41 -42 -31 -74 -47 -111 -55 -62 -14 -154 65 -154 132 0
41 14 62 56 87 19 12 34 26 32 32 -2 6 -33 23 -68 36 -117 44 -109 39 -75 53
151 64 169 85 116 132 -17 15 -31 29 -31 31 0 2 84 44 186 92 102 49 181 91
175 93 -7 2 -35 -6 -62 -18 -60 -25 -74 -21 -27 8 18 11 69 26 113 32 44 7 91
16 104 21 35 14 9 37 -52 45 l-51 7 53 49 c44 40 55 47 68 37 8 -7 54 -15 101
-17z m3184 2 c24 -12 28 -18 17 -25 -21 -13 -40 -11 -61 8 -38 34 -10 45 44
17z m4678 12 c0 -2 -3 -11 -6 -20 -6 -16 -57 -22 -88 -10 -15 6 -15 8 1 20 16
12 93 20 93 10z m-17411 -68 c0 -45 -3 -57 -9 -43 -12 28 -12 105 0 105 6 0
10 -27 9 -62z m2241 41 c18 -5 6 -8 -39 -8 -55 -1 -62 1 -51 14 12 15 25 14
90 -6z m13665 11 c-3 -5 -15 -10 -26 -10 -11 0 -17 5 -14 10 3 6 15 10 26 10
11 0 17 -4 14 -10z m95 0 c0 -5 -7 -10 -15 -10 -8 0 -15 5 -15 10 0 6 7 10 15
10 8 0 15 -4 15 -10z m-13575 -16 l30 -14 -45 5 c-25 4 -49 10 -54 16 -15 14
35 10 69 -7z m-2342 -49 c-1 -17 -6 -184 -10 -372 -5 -188 -11 -345 -15 -348
-14 -14 -20 222 -13 481 7 247 9 275 24 272 11 -3 15 -13 14 -33z m2479 25
c31 0 32 -27 1 -54 -36 -32 -40 -32 -48 4 -4 17 -14 38 -23 47 -16 15 -15 16
17 10 18 -4 42 -7 53 -7z m13755 4 c-3 -3 -12 -4 -19 -1 -8 3 -5 6 6 6 11 1
17 -2 13 -5z m-22810 -26 c-3 -8 -6 -5 -6 6 -1 11 2 17 5 13 3 -3 4 -12 1 -19z
m8368 12 c6 -9 -50 -50 -69 -50 -6 0 3 14 19 30 31 32 40 36 50 20z m10280 -6
c76 -12 72 -23 -7 -24 -43 0 -78 2 -78 4 0 2 -3 12 -7 21 -5 15 -1 16 23 11
16 -3 47 -8 69 -12z m4064 9 c0 -5 -25 -28 -56 -52 -54 -43 -55 -43 -94 -31
-39 13 -43 23 -11 25 9 1 29 2 44 3 15 1 42 15 60 32 31 28 59 39 57 23z
m-12108 -38 c77 0 99 -3 113 -17 10 -10 23 -18 29 -19 7 0 -16 -7 -50 -14 -84
-18 -156 -59 -210 -119 -47 -53 -83 -114 -83 -142 0 -11 -5 -14 -17 -9 -10 3
-45 9 -78 12 -55 5 -63 3 -92 -21 -64 -54 -82 -188 -34 -255 19 -26 21 -34 10
-47 -13 -16 -62 -44 -77 -44 -5 0 -12 40 -15 89 -12 158 -49 218 -142 228 -42
5 -46 8 -41 27 17 61 18 124 3 153 -9 17 -14 33 -11 36 3 3 -8 13 -25 22 -39
20 -40 35 -2 35 42 0 78 -16 121 -53 69 -59 197 -87 245 -53 11 7 41 13 67 13
73 0 90 25 63 94 -5 14 6 16 88 15 66 -1 99 3 110 13 23 18 14 28 -32 36 -22
3 -47 13 -58 22 -17 14 -17 14 2 6 11 -4 63 -8 116 -8z m8714 5 c3 -5 1 -10
-4 -10 -6 0 -11 5 -11 10 0 6 2 10 4 10 3 0 8 -4 11 -10z m-9623 -75 c0 -5 -5
-11 -11 -13 -6 -2 -11 4 -11 13 0 9 5 15 11 13 6 -2 11 -8 11 -13z m496 -50
c34 -32 35 -34 14 -35 -12 0 -39 16 -60 35 -34 32 -35 34 -14 35 12 0 39 -16
60 -35z m5422 -25 c-20 -13 -33 -13 -25 0 3 6 14 10 23 10 15 0 15 -2 2 -10z
m-7495 -12 c24 -11 24 -12 9 -30 -10 -10 -24 -18 -33 -17 -10 0 -12 2 -3 6 29
11 10 25 -28 20 -46 -6 -53 7 -12 21 36 14 37 14 67 0z m8090 2 c3 -5 2 -10
-4 -10 -5 0 -13 5 -16 10 -3 6 -2 10 4 10 5 0 13 -4 16 -10z m140 -40 c-3 -5
-15 -10 -25 -10 -10 0 -22 5 -25 10 -4 6 7 10 25 10 18 0 29 -4 25 -10z
m-8297 -7 c-10 -2 -26 -2 -35 0 -10 3 -2 5 17 5 19 0 27 -2 18 -5z m8817 -43
c4 -6 -8 -10 -30 -10 -22 0 -34 4 -30 10 3 6 17 10 30 10 13 0 27 -4 30 -10z
m162 -6 c-3 -3 -12 -4 -19 -1 -8 3 -5 6 6 6 11 1 17 -2 13 -5z m-447 -33 c0
-7 -44 -31 -57 -31 -4 0 4 11 17 25 21 22 40 25 40 6z m420 -50 c0 -5 -18 -11
-41 -15 -111 -18 -139 -77 -73 -156 27 -31 126 -86 197 -110 l38 -12 -26 -23
c-16 -15 -25 -35 -25 -54 0 -26 8 -34 66 -66 36 -20 68 -43 71 -52 7 -17 -22
-83 -35 -83 -5 0 -30 19 -56 43 -38 36 -46 49 -46 80 0 46 -19 57 -100 57 -55
0 -65 -3 -91 -29 l-29 -29 -31 29 c-17 15 -46 31 -66 35 -53 10 -144 -3 -172
-24 -49 -36 -38 -127 24 -199 l35 -41 -27 -20 c-49 -33 -61 -33 -97 -2 -39 35
-97 40 -135 14 -31 -22 -45 -6 -45 53 l-1 48 90 45 c128 64 126 97 -9 131 -38
9 -46 15 -40 28 22 48 15 99 -24 174 -2 4 2 7 10 7 7 0 30 13 50 30 36 29 36
30 69 12 52 -26 177 -22 253 9 68 28 87 49 69 78 -11 17 -7 20 65 30 41 6 78
14 81 16 8 9 51 5 51 -4z m6066 1 c15 -9 30 -57 16 -48 -6 3 -12 -4 -14 -16
-3 -22 -4 -22 -14 -3 -20 35 -26 75 -12 75 7 0 18 -4 24 -8z m-5346 -51 c0
-11 -36 -42 -42 -36 -2 3 -3 18 0 35 4 25 7 28 23 19 10 -5 19 -13 19 -18z
m560 4 c0 -8 -2 -15 -4 -15 -2 0 -6 7 -10 15 -3 8 -1 15 4 15 6 0 10 -7 10
-15z m-153 -51 c-3 -3 -12 -4 -19 -1 -8 3 -5 6 6 6 11 1 17 -2 13 -5z m-1763
-10 c20 -8 20 -20 0 -28 -8 -3 -12 -2 -9 4 4 6 -9 10 -32 10 -28 0 -34 3 -23
10 17 11 41 13 64 4z m1709 -36 c51 -12 61 -18 92 -62 48 -67 60 -107 45 -151
-14 -42 -35 -55 -87 -55 -45 0 -106 34 -101 56 2 9 23 24 48 33 86 32 51 69
-72 79 l-68 5 0 32 c0 43 36 89 64 81 12 -3 47 -11 79 -18z m124 16 c-3 -3
-12 -4 -19 -1 -8 3 -5 6 6 6 11 1 17 -2 13 -5z m43 -4 c0 -5 -8 -10 -17 -10
-15 0 -16 2 -3 10 19 12 20 12 20 0z m-860 -55 c0 -8 -4 -15 -10 -15 -5 0 -10
7 -10 15 0 8 5 15 10 15 6 0 10 -7 10 -15z m-19235 -258 c-8 -19 -11 -44 -8
-55 3 -13 1 -22 -6 -22 -7 0 -23 -11 -37 -25 -14 -14 -30 -22 -36 -19 -6 4
-24 10 -40 13 l-29 6 28 43 c20 30 38 45 63 52 20 5 44 16 55 24 11 9 21 16
22 16 1 0 -4 -15 -12 -33z m25230 -187 c-11 -36 -25 -21 -25 28 l1 47 15 -28
c8 -15 12 -37 9 -47z m-25266 -81 c19 -34 20 -43 10 -50 -17 -11 -79 -12 -79
-2 0 15 33 93 39 93 3 0 17 -19 30 -41z m8590 -321 c1 -5 -3 -8 -9 -8 -5 0
-10 12 -9 28 0 24 1 25 9 7 5 -11 9 -23 9 -27z m-1119 -178 c0 -5 -2 -10 -4
-10 -3 0 -8 5 -11 10 -3 6 -1 10 4 10 6 0 11 -4 11 -10z"/>
<path d="M16963 6454 c-3 -9 -2 -24 4 -33 14 -22 78 -45 100 -36 15 6 12 9
-17 23 -22 11 -36 25 -38 40 -4 26 -39 31 -49 6z"/>
<path d="M16708 6339 c-28 -16 -22 -25 39 -58 57 -31 116 -40 128 -20 13 20
-5 59 -35 74 -33 17 -106 19 -132 4z"/>
<path d="M16147 3923 c-4 -3 -7 -22 -7 -41 0 -84 110 -224 187 -238 42 -8 63
2 81 39 11 23 10 33 -7 72 -17 39 -28 48 -80 71 -38 17 -70 40 -91 65 -29 37
-65 51 -83 32z"/>
<path d="M18695 5264 c-27 -13 -55 -24 -61 -24 -6 0 -17 -6 -23 -14 -9 -11 -8
-15 5 -20 32 -12 155 33 183 68 12 14 9 16 -20 15 -19 0 -56 -11 -84 -25z"/>
<path d="M18982 4857 c-29 -19 -72 -42 -97 -52 -51 -19 -56 -31 -19 -45 56
-22 142 -5 151 29 4 16 9 17 43 8 45 -12 117 5 127 29 11 30 -32 57 -94 62
-52 3 -63 0 -111 -31z"/>
<path d="M9368 2683 c-12 -3 -18 -14 -18 -33 l0 -29 -41 14 c-56 20 -158 19
-187 -1 -30 -21 -28 -39 11 -65 17 -12 53 -42 78 -65 79 -72 163 -72 236 1 36
36 43 49 43 82 0 30 -7 47 -26 67 -15 14 -32 26 -40 26 -7 0 -18 2 -26 4 -7 2
-21 2 -30 -1z"/>
<path d="M10026 2765 c-51 -18 -85 -44 -113 -85 -31 -45 -29 -83 5 -121 24
-27 34 -31 79 -31 28 0 56 3 62 6 6 4 26 30 45 59 20 29 53 69 76 91 22 21 40
45 40 52 0 39 -118 56 -194 29z"/>
<path d="M12661 10099 c-18 -24 -26 -54 -33 -117 -6 -58 -16 -95 -30 -114 -11
-16 -17 -36 -14 -44 3 -9 -1 -25 -9 -37 -23 -32 -18 -43 8 -19 13 12 35 22 49
22 29 0 81 37 73 51 -4 5 -15 9 -26 9 -28 0 -23 26 11 62 36 37 36 46 10 132
-12 37 -18 71 -15 76 14 23 -3 8 -24 -21z"/>
<path d="M16632 9968 c-34 -34 4 -88 62 -88 28 0 29 1 11 20 -12 14 -16 28
-12 50 6 28 4 30 -21 30 -16 0 -33 -5 -40 -12z"/>
<path d="M19215 9955 c-37 -15 -82 -24 -116 -24 -68 -1 -93 -20 -57 -45 33
-23 151 -21 205 3 36 17 83 65 72 75 -16 14 -53 11 -104 -9z"/>
<path d="M1523 9819 c-41 -12 -42 -29 -3 -111 16 -34 30 -68 30 -75 0 -36 108
-58 162 -32 34 16 62 59 62 96 0 81 -149 154 -251 122z"/>
<path d="M2387 9344 c-13 -13 -7 -71 8 -84 22 -19 37 0 39 47 1 31 -3 39 -19
41 -12 2 -24 0 -28 -4z"/>
<path d="M2462 9258 c-20 -20 -14 -38 13 -38 24 0 51 31 38 44 -10 10 -38 7
-51 -6z"/>
<path d="M24472 9050 c-57 -13 -59 -23 -24 -94 18 -35 32 -71 32 -79 0 -42
107 -73 159 -45 35 19 64 63 64 98 0 76 -130 143 -231 120z"/>
<path d="M20662 8718 c-14 -27 -22 -64 -22 -94 0 -31 -7 -59 -19 -77 -10 -16
-17 -37 -14 -47 3 -10 0 -21 -6 -24 -6 -4 -11 -15 -11 -24 0 -13 3 -12 16 6 9
13 26 22 42 22 15 0 38 9 52 19 l25 19 -28 7 c-34 9 -34 19 -2 49 30 28 31 58
6 135 l-18 54 -21 -45z"/>
<path d="M25313 8583 c-18 -7 -16 -68 2 -83 22 -18 35 -2 38 45 2 39 -10 51
-40 38z"/>
<path d="M25388 8499 c-29 -16 -22 -41 10 -37 19 2 27 9 27 22 0 23 -14 29
-37 15z"/>
<path d="M20490 8371 c-18 -5 -21 -9 -12 -15 17 -10 65 2 57 14 -7 11 -9 11
-45 1z"/>
<path d="M4407 7479 c-16 -10 -15 -14 18 -50 19 -21 35 -46 35 -55 0 -12 9
-14 38 -12 32 3 37 7 40 30 5 38 -14 67 -53 84 -40 17 -54 17 -78 3z"/>
</g>
</svg>
